<?xml version="1.0" encoding="utf-8"?>
<!-- Generator: Adobe Illustrator 27.5.0, SVG Export Plug-In . SVG Version: 6.00 Build 0)  -->
<svg version="1.1" id="_x3C_Layer_x3E_" xmlns="http://www.w3.org/2000/svg" xmlns:xlink="http://www.w3.org/1999/xlink" x="0px"
	 y="0px" viewBox="0 0 2760 1840" style="enable-background:new 0 0 2760 1840;" xml:space="preserve">
<rect style="fill:#FFFFFF;" width="2760" height="1840"/>
<g>
	<g>
		<path style="fill:#DEEBE9;" d="M2335.795,1686.896c-214.436,24.622-435.358,14.363-886.765-11.402
			c-253.474-14.468-763.122,9.503-1017.512,11.402c-185.463,1.385-335.824-125.618-335.824-280.576V933.677V439.951
			c0-154.957,150.674-289.69,335.824-280.576c171.94,8.465,424.845,41.975,688.479,21.456
			c313.553-24.404,908.699-45.141,1215.797-21.456c184.686,14.244,335.823,125.618,335.823,280.576v966.369
			C2671.618,1561.278,2519.538,1665.799,2335.795,1686.896z"/>
	</g>
	<g>
		<ellipse style="fill:#BED5DC;" cx="1388.171" cy="1449.826" rx="1170.002" ry="108.233"/>
	</g>
	<g>
		<g>
			<g>
				<path style="fill:#B2C9C6;" d="M872.051,522.653c-12.802,12.6-20.611,12.28-25.55,7.263c-4.938-5.017-5.134-12.831,7.666-25.431
					c23.317-22.951,43.528-24.961,43.528-24.961S895.707,499.368,872.051,522.653z"/>
			</g>
			<g>
				<g>
					<g>
						<path style="fill:#B2C9C6;" d="M966.729,931.18l-3.358,0.541c-0.082-0.516-8.777-52.549-44.718-122.927
							c-33.166-64.935-96.975-159.217-212.634-239.611l1.939-2.791c116.299,80.837,180.451,175.672,213.79,240.993
							C957.896,878.206,966.644,930.658,966.729,931.18z"/>
					</g>
				</g>
				<g>
					<g>
						<path style="fill:#B2C9C6;" d="M829.051,674.175l-3.224-1.078c39.18-117.068-30.546-229.679-31.255-230.803l2.875-1.813
							C798.165,441.617,868.752,555.551,829.051,674.175z"/>
					</g>
				</g>
				<g>
					<g>
						<path style="fill:#B2C9C6;" d="M765.942,633.188c-33.484,8.431-63.01-1.963-63.348-2.085l1.153-3.196
							c0.376,0.135,38.201,13.403,76.157-3.029l1.351,3.119C776.122,630.22,770.983,631.918,765.942,633.188z"/>
					</g>
				</g>
				<g>
					<g>
						<path style="fill:#B2C9C6;" d="M699.189,551.357c21.402,11.341,25.097,19.757,21.8,25.977
							c-3.296,6.221-12.334,7.891-33.736-3.451c-38.987-20.659-51.861-41.906-51.861-41.906S659.635,530.398,699.189,551.357z"/>
					</g>
				</g>
				<g>
					<g>
						<path style="fill:#B2C9C6;" d="M708.752,618.221c23.826,4.359,29.886,11.271,28.618,18.194
							c-1.267,6.926-9.382,11.241-33.207,6.883c-43.401-7.943-62.084-24.321-62.084-24.321S664.718,610.161,708.752,618.221z"/>
					</g>
				</g>
				<g>
					<g>
						<path style="fill:#B2C9C6;" d="M786.436,572.188c8.242,15.958,5.623,23.324-0.631,26.555
							c-6.255,3.231-13.777,1.104-22.02-14.854c-15.014-29.07-10.946-48.97-10.946-48.97S771.203,542.695,786.436,572.188z"/>
					</g>
				</g>
				<g>
					<g>
						<path style="fill:#B2C9C6;" d="M801.035,425.377c11.226,21.463,9.507,30.492,3.268,33.754
							c-6.238,3.263-14.634-0.477-25.858-21.939c-20.448-39.099-19.035-63.903-19.035-63.903S780.289,385.708,801.035,425.377z"/>
					</g>
				</g>
			</g>
		</g>
	</g>
	<g>
		<g>
			<path style="fill:#B2C9C6;" d="M934.963,1046.727c0,0-445.911-472.988-598.917-338.339
				C183.04,843.034,721.053,954.294,845.505,1096.396L934.963,1046.727z"/>
		</g>
		<g>
			<g>
				<path style="fill:#B2C9C6;" d="M885.166,1074.953c-84.164-99.702-209.178-178.249-299.23-226.585
					c-97.629-52.401-176.29-81.549-177.074-81.838l1.802-4.891c0.786,0.289,79.793,29.564,177.739,82.136
					c90.45,48.551,216.052,127.485,300.744,227.813L885.166,1074.953z"/>
			</g>
		</g>
	</g>
	<g>
		<g>
			<g>
				<path style="fill:#CFD3A3;" d="M458.991,1216.06c89.641,17.424,77.669,152.811,178.824,125.604
					c101.16-27.268,92.591-33.599,142.435,9.539c0,0,19.946,42.289,60.538,48.529c160.16,24.625,373.343-215.963,204.122-342.485
					c-12.219-9.136-29.795-12.381-49.231-15.007c-105.434-14.175-137.158,34.756-222.559-87.335
					c-85.429-122.123-194.036,57.848-264.643,53.089c-70.604-4.76-133.158-24.581-186.492,51.257
					C268.646,1135.148,369.345,1198.696,458.991,1216.06z"/>
			</g>
		</g>
		<g>
			<g>
				<g>
					<path style="fill:#C4C695;" d="M997.703,1230.003l3.245-5.053c-2.225-1.431-228.185-143.233-691.163-144.228l-0.013,6.009
						C771.012,1087.723,995.486,1228.581,997.703,1230.003z"/>
				</g>
			</g>
			<g>
				<g>
					<path style="fill:#C4C695;" d="M705.996,1057.416c59.871-56.229,69.686-100.066,70.074-101.902l-5.876-1.247
						c-0.092,0.433-9.971,43.979-68.313,98.772L705.996,1057.416z"/>
				</g>
			</g>
			<g>
				<g>
					<path style="fill:#C4C695;" d="M696.801,1122.424c16.505-30.587,13.956-74.105-7.367-125.85
						c-15.969-38.75-37.074-68.955-37.285-69.256l-4.912,3.453c0.826,1.176,82.229,118.472,44.276,188.804L696.801,1122.424z"/>
				</g>
			</g>
			<g>
				<g>
					<path style="fill:#C4C695;" d="M574.792,1114.567c7.133-6.233,10.977-10.269,11.15-10.454l-4.382-4.105
						c-0.802,0.857-81.814,85.736-204.062,84.649l-0.052,6.003C475.951,1191.537,548.209,1137.792,574.792,1114.567z"/>
				</g>
			</g>
			<g>
				<g>
					<path style="fill:#C4C695;" d="M517.73,1254.697c27.219-31.698,34.514-62.95,35.84-83.586
						c1.445-22.461-3.558-37.266-3.77-37.887l-5.681,1.957c0.194,0.568,18.889,57.568-30.949,115.604L517.73,1254.697z"/>
				</g>
			</g>
		</g>
	</g>
	<g style="opacity:0.6;">
		<path style="fill:#B2C9C6;" d="M1862.739,1057.893c0,0,148.197-523.263,288.673-477.716
			c140.475,45.547-176.995,328.629-215.31,482.321L1862.739,1057.893z"/>
	</g>
	<g>
		<g>
			<path style="fill:#CFD3A3;" d="M1722.097,1254.69c0,0,329.543-570.124,511.737-472.985
				c182.193,97.14-322.353,332.063-411.977,501.134L1722.097,1254.69z"/>
		</g>
		<g>
			<g>
				<path style="fill:#C4C695;" d="M1777.764,1270.928c59.772-117.889,164.744-224.43,242.277-293.045
					c84.059-74.389,154.828-121.437,155.534-121.903l-2.914-4.402c-0.708,0.467-71.789,47.72-156.12,122.351
					c-77.878,68.921-183.338,175.98-243.487,294.61L1777.764,1270.928z"/>
			</g>
		</g>
	</g>
	<g>
		<g>
			<g>
				<path style="fill:#B2C9C6;" d="M2351.639,1218.299c-75.401,21.583-55.077,136.531-143.654,120.784
					c-74.917-13.361-81.568-19.753-105.691,3.164c-8.269,7.854-15.244,16.952-20.991,26.803
					c-6.888,11.808-20.53,29.431-42.661,34.831c-135.204,32.996-335.522-156.982-200.153-277.839
					c9.774-8.728,24.571-12.812,41.005-16.506c89.156-19.979,119.944,19.524,183.924-91.298
					c64.002-110.853,170.33,35.048,230.388,25.719c60.057-9.33,112.103-30.947,163.384,29.97
					C2508.477,1134.896,2427.049,1196.768,2351.639,1218.299z"/>
			</g>
		</g>
		<g style="opacity:0.5;">
			<g>
				<g>
					<path style="fill:#74A1BD;" d="M1891.742,1270.342l-3.152-4.081c1.797-1.391,184.574-139.546,580.636-174.869l0.459,5.139
						C2075.11,1131.724,1893.532,1268.959,1891.742,1270.342z"/>
				</g>
			</g>
			<g>
				<g>
					<path style="fill:#74A1BD;" d="M2128.482,1100.951c-55.413-43.652-67.077-80.43-67.545-81.973l4.935-1.504
						c0.11,0.364,11.806,36.888,65.806,79.425L2128.482,1100.951z"/>
				</g>
			</g>
			<g>
				<g>
					<path style="fill:#74A1BD;" d="M2141.19,1155.889c-16.398-24.941-17.458-62.367-3.066-108.228
						c10.776-34.345,26.587-61.761,26.745-62.033l4.459,2.588c-0.619,1.068-61.534,107.49-23.825,164.842L2141.19,1155.889z"/>
				</g>
			</g>
			<g>
				<g>
					<path style="fill:#74A1BD;" d="M2245,1140.081c-6.568-4.801-10.156-7.968-10.32-8.113l3.444-3.839
						c0.75,0.674,76.386,67.266,180.903,57.233l0.492,5.132C2335.301,1198.579,2269.473,1157.974,2245,1140.081z"/>
				</g>
			</g>
			<g>
				<g>
					<path style="fill:#74A1BD;" d="M2304.257,1255.73c-25.649-25.094-34.219-51.291-36.89-68.848
						c-2.908-19.111,0.27-32.151,0.404-32.699l5.006,1.252c-0.124,0.501-11.875,50.664,35.09,96.609L2304.257,1255.73z"/>
				</g>
			</g>
		</g>
	</g>
	<g>
		<path style="fill:#B2C9C6;" d="M2444.679,970.424c24.983-4.287,33.776,2.375,35.456,12.168c1.68,9.791-4.39,19.004-29.371,23.291
			c-45.508,7.809-70.545-6.147-70.545-6.147S2398.508,978.347,2444.679,970.424z"/>
	</g>
	<g>
		<path style="fill:#B2C9C6;" d="M2021.84,526.959c5.436-24.758,14.92-30.394,24.623-28.264
			c9.703,2.132,15.953,11.224,10.516,35.982c-9.902,45.098-32.26,63.036-32.26,63.036S2011.792,572.715,2021.84,526.959z"/>
	</g>
	<g>
		<path style="fill:#6F4975;" d="M1985.965,1439.065l-1148.698-12.17c-24.591-0.261-44.378-18.738-44.378-41.442V738.17
			c0-22.643,19.683-41.095,44.205-41.44l1133.881-16.031c24.704-0.35,45.07,17.798,45.57,40.603l14.818,675.481
			C2031.877,1420.183,2011.314,1439.333,1985.965,1439.065z"/>
	</g>
	<g>
		<path style="fill:#B2C9C6;" d="M1948.565,1374.598H859.965c-12.463,0-22.564-10.102-22.564-22.564V762.358
			c0-12.461,10.102-22.563,22.564-22.563h1088.601c12.462,0,22.563,10.103,22.563,22.563v589.675
			C1971.129,1364.496,1961.027,1374.598,1948.565,1374.598z"/>
	</g>
	<g>
		<g>
			<path style="fill:#2F1A31;" d="M1705.959,923.543c0,0-4.644,30.292-17.001,45.732c-8.145,10.178-30.613,30.336-14.635,37.054
				c12.762,5.363,37.336-18.52,45.313-24.46c7.978-5.941,20.007-17.188,17.339-26.769c-5.527-19.853-3.705-44.809-3.705-44.809
				L1705.959,923.543z"/>
		</g>
		<g>
			<path style="fill:#2F1A31;" d="M1767.662,900.05c0,0,6.178,30.017-0.039,48.789c-4.099,12.376-18.156,39.089-0.84,39.831
				c13.83,0.593,28.568-30.345,33.981-38.689c5.414-8.345,12.782-23.07,6.949-31.128c-12.084-16.692-19.053-40.725-19.053-40.725
				L1767.662,900.05z"/>
		</g>
		<g>
			<g>
				<path style="fill:#436E8E;" d="M1759.003,921.262c-165.65-110.496-157.47-207.297-134.513-245.152
					c26.66-43.964,68.873-78.728,133.568-94.234c17.248-4.135,33.667-6.526,47.385-7.902c19.865-1.991,36.977,13.873,36.451,33.833
					l-1.484,56.374l0.125,0.003c-27.638-0.579-111.489,7.849-133.46,52.531c-4.566,9.288,106.939,140.255,102.777,163.754
					C1805.146,907.054,1775.2,932.065,1759.003,921.262z"/>
			</g>
		</g>
		<g>
			<g>
				<path style="fill:#436E8E;" d="M1694.773,937.81c-19.049,0.095-34.242-15.906-33.119-34.924
					c2.498-42.278,10.353-114.233,34.973-168.6c13.963-30.832,36.162-58.866,65.981-83.323
					c22.485-18.441,49.395-34.923,79.981-48.987c50.875-23.394,87.518-20.131,87.518-20.131l27.804,41
					c-0.368,0.074,7.798,41.356-50.981,78.167c-32.43,20.31-97.626,32.722-124.447,85.212
					c-19.146,37.472-26.464,87.156-28.896,121.877c-1.165,16.608-14.959,29.49-31.607,29.573L1694.773,937.81z"/>
			</g>
		</g>
		<g>
			<path style="fill:#F7B686;" d="M1732.605,436.527c0,0-34.166,52.565-46.406,130.489c-8.1,51.565,85.739-8.465,85.739-8.465
				l4.174-107.719L1732.605,436.527z"/>
		</g>
		<g>
			<path style="fill:#CFD3A3;" d="M1903.402,406.817c0,0-26.024-44.483-86.016-30.832c-59.99,13.651-84.432,74.924-88.729,222.067
				c0,0,36.027,63.752,199.916,51.323c18.158-1.377,44.18-3.777,35.306-33.222C1947.383,561.421,1931.403,452.252,1903.402,406.817z
				"/>
		</g>
		<g>
			<path style="fill:#CFD3A3;" d="M1969.396,419.807l-61.707,11.598c0,0-107.902,31.912-138.109,32.164
				c-30.208,0.253-42.708-21.841-42.708-21.841s24.362-41.353,75.424-60.865c4.796-1.84,9.822-3.478,15.09-4.876
				c8.845-2.34,17.834-4.391,26.832-4.493C1946.075,370.326,1969.396,419.807,1969.396,419.807z"/>
		</g>
		<g>
			<path style="fill:#2F1A31;" d="M1969.396,419.807c1.335,4.865-11.6,12.982-28.891,18.13s-32.39,5.379-33.724,0.515
				c-1.336-4.865,11.6-12.982,28.89-18.131C1952.963,415.172,1968.062,414.942,1969.396,419.807z"/>
		</g>
		<g>
			<path style="fill:#F7B686;" d="M1844.11,371.503c-6.592,0.536-12.974-2.451-16.678-7.93l-11.606-17.168l-3.368-4.983
				l-19.804-29.298l8.668,32.616l5.205,19.577l1.484,5.58c1.211,4.553-1.239,9.252-5.64,10.937l-0.077,0.029
				c-1.688,4.44-3.529,13.164,7.17,14.456c12.572,1.52,29.973-11.457,34.752-23.825
				C1844.181,371.497,1844.146,371.5,1844.11,371.503z"/>
		</g>
		<g>
			<path style="fill:#74A1BD;" d="M1828.996,299.576c0,0-0.248,5.671,4.986,16.201c7.658,15.407-9.649,25.734-15.291,21.995
				c-0.697-0.462-5.179-28.29-5.179-28.29l5.272-4.662L1828.996,299.576z"/>
		</g>
		<g>
			<path style="fill:#2F1A31;" d="M1815.757,345.851c0.028,0.184,0.052,0.369,0.069,0.554c1.238,10.81-9.218,17.957-9.218,17.957
				l-0.081-0.045l-5.205-19.577c3.243-1.94,7.959-4.196,11.136-3.318C1814.119,341.881,1815.358,343.195,1815.757,345.851z"/>
		</g>
		<g>
			<path style="fill:#F7B686;" d="M1761.089,323.604c-4.024-21.17,6.624-40.976,23.783-44.238
				c17.159-3.262,34.332,11.255,38.356,32.426c4.024,21.17-6.624,40.977-23.783,44.238
				C1782.286,359.293,1765.112,344.774,1761.089,323.604z"/>
		</g>
		<g>
			<path style="fill:#74A1BD;" d="M1774.259,290.614c1.087,1.014-0.055,21.663,37.373,19.427
				c37.427-2.235,7.056-42.387-20.09-38.265c-39.196,5.952-39.887,33.199-34.357,41.906
				C1762.715,322.39,1774.259,290.614,1774.259,290.614z"/>
		</g>
		<g>
			<path style="fill:#74A1BD;" d="M1825.957,255.67c0,0-14.323,14.097,0.264,22.03c14.587,7.933,50.16,5.854,44.007,25.09
				c-6.152,19.236-9.446,46.627,8.208,46.616c17.656-0.011,28.14-3.341,37.66,8.9c9.52,12.242,38.852-2.033,33.258-17.697
				c-5.594-15.664,18.214-34.911,4.029-47.604c-14.184-12.693-44.41-20.33-55.035-38.383
				C1887.723,236.568,1837.615,244.755,1825.957,255.67z"/>
		</g>
		<g>
			<path style="fill:#74A1BD;" d="M1806.411,304.528c0,0,17.92,12.901,15.802,29.975c0,0,6.86-11.107,6.381-14.675
				c-0.48-3.568-5.206-15.884-5.206-15.884L1806.411,304.528z"/>
		</g>
		<g>
			<path style="fill:#F7B686;" d="M1820.172,318.363c-2.88,4.029-7.736,5.309-10.845,2.859c-3.109-2.451-3.294-7.704-0.414-11.733
				c2.881-4.029,7.736-5.31,10.845-2.859C1822.867,309.081,1823.053,314.333,1820.172,318.363z"/>
		</g>
		<g>
			<path style="fill:#FFFFFF;" d="M1915.468,358.472c-4.597-17.295-14.79-18.074-25.582-18.899c-4.28-0.328-8.707-0.666-12.93-2.019
				c-2.009-0.644-3.415-1.76-4.181-3.317c-1.916-3.896,0.306-10.038,2.877-17.148c3.747-10.358,7.992-22.098,1.656-31.211
				c-12.256-17.627-30.844-18.418-31.03-18.424c-10.806,0.682-16.406-0.529-17.051-3.709c-0.649-3.209,4.408-6.78,6.274-7.434
				c15.127-5.292,32.619-7.427,57.959,12.6c19.983,15.794,18.611,24.682,16.874,35.935c-0.384,2.484-0.779,5.052-0.962,7.842
				c-0.145,2.21,0.318,3.846,1.415,5.002c2.441,2.577,7.888,2.51,13.159,2.451c6.813-0.081,13.858-0.164,15.757,5.252
				c1.484,4.236-0.204,9.271-1.837,14.141c-1.674,4.99-3.254,9.704-1.309,13.001c1.271,2.153,3.98,3.583,8.283,4.371l-0.232,1.278
				c-4.697-0.859-7.697-2.491-9.17-4.989c-2.248-3.809-0.576-8.795,1.195-14.075c1.563-4.662,3.18-9.482,1.842-13.299
				c-1.589-4.535-7.877-4.462-14.514-4.382c-5.549,0.066-11.285,0.132-14.118-2.856c-1.341-1.415-1.937-3.426-1.77-5.981
				c0.187-2.848,0.588-5.444,0.976-7.956c1.673-10.834,2.994-19.392-16.396-34.716c-24.846-19.637-41.945-17.563-56.723-12.393
				c-1.797,0.628-5.865,3.804-5.43,5.948c0.219,1.087,2.188,3.526,15.757,2.669c0.253,0.005,19.476,0.798,32.117,18.98
				c6.72,9.666,2.161,22.269-1.501,32.396c-2.471,6.832-4.604,12.732-2.934,16.132c0.612,1.246,1.729,2.114,3.412,2.653
				c4.077,1.307,8.426,1.639,12.631,1.96c11.266,0.861,21.906,1.675,26.739,19.861L1915.468,358.472z"/>
		</g>
		<g>
			<path style="fill:#FFFFFF;" d="M1805.393,298.569c-11.608,0-19.07-7.995-19.153-8.085l0.873-0.8
				c0.089,0.097,8.999,9.601,22.359,7.357l0.196,1.168C1808.189,298.458,1806.762,298.569,1805.393,298.569z"/>
		</g>
		<g>
			<g>
				<path style="fill:#6F4975;" d="M1771.44,346.698c-2.321,0.441-4.789,0.141-7.126-0.892c-3.774-1.667-6.868-5.056-8.49-9.297
					c-3.026-7.914-0.074-16.474,6.581-19.082c2.849-1.115,6.072-0.999,9.078,0.329c3.774,1.668,6.869,5.056,8.491,9.296
					c3.026,7.915,0.074,16.474-6.581,19.083C1772.758,346.384,1772.105,346.571,1771.44,346.698z M1764.5,317.612
					c-0.619,0.118-1.227,0.292-1.816,0.523c-6.269,2.457-9.028,10.578-6.149,18.103c1.55,4.053,4.498,7.287,8.088,8.873
					c2.819,1.246,5.834,1.357,8.493,0.317c6.27-2.457,9.028-10.577,6.149-18.103c-1.55-4.053-4.498-7.287-8.089-8.874
					C1768.983,317.482,1766.67,317.199,1764.5,317.612z"/>
			</g>
		</g>
		<g>
			<g>
				<path style="fill:#6F4975;" d="M1800.701,336.75c-2.32,0.442-4.787,0.142-7.123-0.892c-3.774-1.667-6.87-5.056-8.491-9.296
					c-3.027-7.914-0.075-16.474,6.582-19.082c2.848-1.115,6.071-0.999,9.076,0.329c3.774,1.668,6.87,5.056,8.491,9.297l0,0
					c3.027,7.914,0.075,16.474-6.582,19.082C1802.021,336.436,1801.366,336.625,1800.701,336.75z M1793.762,307.665
					c-0.619,0.118-1.227,0.292-1.815,0.523c-6.27,2.456-9.027,10.577-6.149,18.102c1.549,4.053,4.498,7.287,8.087,8.874
					c2.82,1.245,5.838,1.358,8.494,0.316c6.269-2.456,9.027-10.577,6.149-18.102l0,0c-1.551-4.053-4.498-7.288-8.088-8.874
					C1798.246,307.536,1795.933,307.252,1793.762,307.665z"/>
			</g>
		</g>
		<g>
			<g>
				<path style="fill:#6F4975;" d="M1776.564,329.174c-0.118,0.022-0.243-0.011-0.336-0.099c-0.15-0.145-0.156-0.385-0.012-0.537
					c0.146-0.151,3.62-3.7,10.809-3.981c0.21-0.008,0.387,0.155,0.395,0.365c0.008,0.209-0.152,0.388-0.365,0.394
					c-6.865,0.268-10.254,3.713-10.288,3.748C1776.71,329.123,1776.639,329.16,1776.564,329.174z"/>
			</g>
		</g>
		<g>
			<path style="fill:#DB6B49;" d="M1779.717,345.764c0,0,10.66-1.773,20.564-7.519c0,0,2.87,10.293-8.491,13.179
				C1785.183,353.103,1779.717,345.764,1779.717,345.764z"/>
		</g>
		<g>
			<path style="fill:#FFFFFF;" d="M1779.717,345.764c0,0,2.974,1.643,8.96,0.478c5.987-1.165,11.604-7.996,11.604-7.996
				S1788.16,344.19,1779.717,345.764z"/>
		</g>
		<g>
			<g>
				<path style="fill:#060633;" d="M1789.224,318.64c-0.218-0.017-0.425-0.132-0.552-0.33c-0.213-0.335-0.116-0.778,0.218-0.993
					c0.196-0.126,4.488-3.477,9.537,0.301c0.317,0.238,0.397,0.681,0.164,1.004c-0.231,0.323-0.638,0.321-1.003,0.164
					c-3.661-1.564-7.759-0.36-7.922-0.257C1789.528,318.616,1789.374,318.651,1789.224,318.64z"/>
			</g>
		</g>
		<g>
			<path style="fill:#060633;" d="M1796.292,325.343c0.374,1.675-0.309,3.254-1.524,3.525c-1.216,0.271-2.504-0.867-2.879-2.542
				c-0.374-1.676,0.309-3.254,1.524-3.526C1794.629,322.529,1795.918,323.668,1796.292,325.343z"/>
		</g>
		<g>
			<g>
				<path style="fill:#060633;" d="M1764.698,327.118c-0.208,0.067-0.443,0.04-0.635-0.095c-0.325-0.227-0.405-0.674-0.179-0.999
					c0.135-0.192,2.826-4.925,8.933-3.355c0.386,0.099,0.627,0.479,0.536,0.866c-0.092,0.386-0.469,0.54-0.866,0.535
					c-3.98-0.053-7.31,2.621-7.423,2.779C1764.972,326.981,1764.841,327.072,1764.698,327.118z"/>
			</g>
		</g>
		<g>
			<path style="fill:#060633;" d="M1773.787,330.625c0.984,1.407,0.954,3.125-0.066,3.84c-1.021,0.714-2.646,0.152-3.63-1.254
				c-0.984-1.407-0.954-3.126,0.066-3.84C1771.178,328.656,1772.803,329.218,1773.787,330.625z"/>
		</g>
		<g>
			<g>
				<path style="fill:#F7B686;" d="M1958.738,556.835c-26.355,41.298-78.564,67.658-133.424,65.93l5.846-44.015
					c42.538-7.754,75.149-35.438,81.224-58.773c7.632-29.322,5.014-57.887,1.367-79.355c-0.347-2.035,0.457-4.084,2.096-5.341
					c5.439-4.166,19.531-12.636,44.713-13.134c2.241-0.045,4.226,1.458,4.8,3.624
					C1975.895,465.452,1982.257,519.984,1958.738,556.835z"/>
			</g>
		</g>
		<g style="opacity:0.3;">
			<path style="fill:#E08B65;" d="M1930.978,570.373c-0.965,0-1.901-0.188-2.784-0.566c-4.615-1.971-6.238-8.623-3.616-14.828
				c1.499-3.55,4.185-6.391,7.183-7.602c2.066-0.836,4.123-0.863,5.951-0.083c4.615,1.972,6.237,8.623,3.617,14.83l0,0
				c-1.5,3.549-4.186,6.391-7.184,7.602C1933.077,570.156,1932.011,570.373,1930.978,570.373z M1934.926,548.759
				c-0.777,0-1.587,0.165-2.408,0.497c-2.51,1.014-4.779,3.446-6.073,6.512c-2.188,5.18-1.047,10.642,2.545,12.176
				c1.321,0.564,2.842,0.53,4.397-0.097c2.509-1.014,4.779-3.448,6.074-6.512c2.188-5.181,1.045-10.644-2.547-12.177
				C1936.29,548.892,1935.621,548.759,1934.926,548.759z"/>
		</g>
		<g>
			<g>
				<path style="fill:#F7B686;" d="M1831.16,578.75c0,0-39.4-12.53-51.925-6.604c-12.523,5.926-24.041,22.965-15.497,20.939
					c8.543-2.024,18.744-7.628,18.744-7.628s-21.232,12.997-16.042,16.646c5.19,3.648,23.547-7.833,23.547-7.833
					s-24.033,17.479-18.015,19.338c6.02,1.859,24.183-11.547,24.183-11.547s-21.711,17.155-14.669,19.151
					c7.042,1.996,17.85-14.292,23.04-10.643c5.189,3.648,18.429,20.407,30.333,7.22L1831.16,578.75z"/>
			</g>
			<g>
				<path style="fill:#DD8964;" d="M1782.812,585.85l-0.657-0.783c0.232-0.195,5.741-4.766,10.124-3.517l-0.278,0.983
					C1788.129,581.437,1782.864,585.806,1782.812,585.85z"/>
			</g>
			<g>
				<path style="fill:#DD8964;" d="M1790.323,594.658l-0.672-0.771c0.222-0.192,5.479-4.703,11.906-4.203l-0.081,1.02
					C1795.498,590.241,1790.375,594.613,1790.323,594.658z"/>
			</g>
			<g>
				<path style="fill:#DD8964;" d="M1796.484,602.454l-0.658-0.783c0.274-0.23,6.78-5.641,11.339-3.917l-0.361,0.956
					C1802.809,597.202,1796.547,602.401,1796.484,602.454z"/>
			</g>
		</g>
		<g>
			<g>
				<path style="fill:#2F1A31;" d="M1782.763,640.053h-126.484c-2.648,0-4.999-1.684-5.835-4.18l-26.284-78.498
					c-1.324-3.953,1.639-8.032,5.835-8.032h121.635c5.543,0,10.464,3.525,12.213,8.749l24.755,73.929
					C1789.921,635.973,1786.957,640.053,1782.763,640.053z"/>
			</g>
			<g>
				<path style="fill:#2F1A31;" d="M1774.824,640.053H1648.34c-2.648,0-4.999-1.684-5.834-4.18l-26.286-78.498
					c-1.323-3.953,1.641-8.032,5.836-8.032h121.636c5.542,0,10.463,3.525,12.212,8.749l24.755,73.929
					C1781.982,635.973,1779.019,640.053,1774.824,640.053z"/>
			</g>
			<g>
				<path style="fill:#DEEBE9;" d="M1686.199,592.128c0-2.98,3.438-4.194,6.439-4.194c3,0,7.9,3.271,7.87,7.446
					c-0.034,4.507-3.556,5.093-6.557,5.093S1686.199,595.923,1686.199,592.128z"/>
			</g>
			<g>
				<path style="fill:#2F1A31;" d="M1821.359,628.96h-173.083v11.093h176.682c2.055,0,3.721-1.666,3.721-3.72v-0.054
					C1828.679,632.236,1825.402,628.96,1821.359,628.96z"/>
			</g>
			<g>
				<path style="fill:#436E8E;" d="M1765.83,589.028c-0.062-0.235-6.268-23.506-10.286-30.737c-3.96-7.127-8.84-8.539-8.888-8.552
					l0.217-0.792c0.213,0.058,5.263,1.518,9.39,8.944c4.067,7.321,10.106,29.965,10.362,30.925L1765.83,589.028z"/>
			</g>
			<g>
				<path style="fill:#436E8E;" d="M1784.523,629.371c-4.688,0-5.856-2.075-5.904-2.163l-9.885-29.505l0.779-0.26l9.858,29.439
					c-0.001-0.001-0.001-0.001-0.001-0.001c0.011,0,1.069,1.667,5.152,1.667V629.371z"/>
			</g>
		</g>
		<g>
			<path style="fill:#020202;" d="M1667.944,844.574l-1.021-0.068c0.025-0.377,2.666-38.218,14.361-81.003
				c10.807-39.535,31.777-91.502,70.315-114.567l0.525,0.879c-38.247,22.889-59.098,74.604-69.854,113.958
				C1670.604,806.461,1667.97,844.198,1667.944,844.574z"/>
		</g>
		<g>
			<path style="fill:#020202;" d="M1752.375,916.437l-1.023-0.007c0.417-58.873,19.676-104.319,19.869-104.771l0.94,0.404
				C1771.967,812.513,1752.791,857.78,1752.375,916.437z"/>
		</g>
	</g>
	<g>
		<g>
			<path style="fill:#F7B686;" d="M2163.738,919.155c0,0-30.183-1.393-34.988-47.701c-4.94-47.6,49.654,0,49.654,0L2163.738,919.155
				z"/>
		</g>
		<g>
			<path style="fill:#F7B686;" d="M2194.531,767.322c-1.837,0.725-32.389,9.002-45.916,55.078
				c-13.527,46.075,31.886,9.749,31.886,9.749L2194.531,767.322z"/>
		</g>
		<g>
			<path style="fill:#2F1A31;" d="M2234.768,1402.127c0,0-0.414,16.56-11.62,21.23c-11.205,4.671-43.671,8.887-31.539,19.533
				c6.961,6.109,39.767,2.162,49.028,2.162c9.263-0.001,17.96,4.035,24.842-2.164c7.572-6.82-0.001-40.763-0.001-40.763
				s-7.992,4.163-15.181,3.978C2239.938,1405.835,2234.768,1402.127,2234.768,1402.127z"/>
		</g>
		<g>
			<path style="fill:#2F1A31;" d="M2363.449,1402.123c0,0-0.414,16.561-11.619,21.231s-43.672,8.887-31.54,19.533
				c6.962,6.108,39.768,2.161,49.03,2.161s17.959,4.036,24.842-2.163c7.571-6.82-0.002-40.764-0.002-40.764
				s-7.992,4.164-15.18,3.978C2368.621,1405.831,2363.449,1402.123,2363.449,1402.123z"/>
		</g>
		<g>
			<path style="fill:#E28569;" d="M2151.485,948.167c0,0-2.072,69.315,20.053,202.288c15.972,95.998,34.827,192.73,44.079,239.106
				c3.308,16.589,17.261,28.718,33.795,29.381l8.886,0.357c17.879,0.717,32.389-14.642,31.083-32.899l-22.445-313.75l-5.533-103.267
				L2151.485,948.167z"/>
		</g>
		<g>
			<path style="fill:#2F1A31;" d="M2353.864,1009.166c-1.021,8.438-48.725,7.412-107.132,0.019
				c-58.407-7.392-103.871-20.046-102.851-28.482c1.021-8.437,48.138-9.462,106.545-2.069
				C2308.834,986.027,2354.884,1000.731,2353.864,1009.166z"/>
		</g>
		<g>
			<path style="fill:#E28569;" d="M2218.542,997.676l124.697,400.567c5.219,16.767,20.314,28.256,37.511,28.55l7.494,0.128
				c17.697,0.303,31.225-16.061,27.998-33.866l-68.213-376.384c-0.99-4.474-4.293-8.031-8.607-9.275
				C2316.033,1000.65,2216.247,981.109,2218.542,997.676z"/>
		</g>
		<g>
			<path style="fill:#436E8E;" d="M2334.363,778.545c0,0-16.592-46.68-75.695-44.557c-59.103,2.123-103.729,79.789-114.786,246.715
				c0,0,96.781-21.223,210.155,28.287C2354.037,1008.99,2360.322,846.581,2334.363,778.545z"/>
		</g>
		<g>
			<path style="fill:#436E8E;" d="M2375.869,775.734l-41.871,26.801c0,0-107.628,10.767-136.199,5.584
				c-28.572-5.184-33.018-26.191-33.018-26.191s27.18-37.281,78.902-46.54c4.86-0.877,9.756-1.021,14.982-1.396
				c8.771-0.622,17.545-0.354,26.145,0.573C2335.911,740.079,2375.869,775.734,2375.869,775.734z"/>
		</g>
		<g>
			<path style="fill:#020202;" d="M2274.273,1176.714l-26.816-81.523c-6.03-18.332-18.434-33.632-34.924-43.08l1.042-1.819
				c16.941,9.706,29.682,25.419,35.874,44.244l26.816,81.523L2274.273,1176.714z"/>
		</g>
		<g>
			<g>
				<path style="fill:#E28569;" d="M2218.137,723.593c-0.324-0.077-7.947-1.936-10.213-7.396c-1.196-2.881-0.653-6.209,1.613-9.892
					c1.01-1.641,1.94-3.125,2.793-4.484c5.92-9.438,7.913-12.618,6.364-20.002l0.672-0.142c1.607,7.656-0.588,11.156-6.454,20.51
					c-0.852,1.357-1.781,2.839-2.789,4.478c-2.144,3.484-2.671,6.602-1.566,9.267c2.131,5.135,9.662,6.974,9.738,6.991
					L2218.137,723.593z"/>
			</g>
			<g>
				<path style="fill:#E28569;" d="M2219.029,681.747c0,0,2.619,11.854-5.234,24.261c-7.854,12.407,0.694,21.474,11.333,16.701
					c10.64-4.771,14.694,8.793,28.296,1.295C2267.023,716.506,2219.029,681.747,2219.029,681.747z"/>
			</g>
			<g>
				<path style="fill:#F7B686;" d="M2281.888,734.16c-5.878-0.629-10.981-4.317-13.319-9.745l-7.325-17.011l-2.125-4.938
					l-12.498-29.028l2.166,30.083l1.304,18.057l0.371,5.148c0.303,4.199-2.633,7.915-6.777,8.661l-0.072,0.012
					c-2.224,3.617-5.296,10.971,3.883,13.89c10.784,3.433,28.228-5.058,34.488-15.118
					C2281.95,734.167,2281.919,734.164,2281.888,734.16z"/>
			</g>
			<g>
				<path style="fill:#2F1A31;" d="M2261.273,706.907c-0.004,0.165-0.015,0.331-0.03,0.497
					c-0.717,9.698-11.091,14.227-11.091,14.227l-0.063-0.054l-1.304-18.057c3.173-1.162,7.689-2.355,10.332-1.055
					C2260.5,703.146,2261.368,704.507,2261.273,706.907z"/>
			</g>
			<g>
				<path style="fill:#F7B686;" d="M2216.989,678.249c0-19.259,12.654-34.871,28.266-34.871c15.609,0,28.265,15.612,28.265,34.871
					c0,19.259-12.655,34.871-28.265,34.871C2229.644,713.12,2216.989,697.508,2216.989,678.249z"/>
			</g>
			<g>
				<path style="fill:#F7B686;" d="M2269.738,683.509c-3.2,3.058-7.678,3.37-9.998,0.7c-2.32-2.671-1.607-7.313,1.595-10.372
					c3.202-3.057,7.678-3.37,9.999-0.699S2272.941,680.451,2269.738,683.509z"/>
			</g>
			<g>
				<path style="fill:#DB6B49;" d="M2230.032,700.815c0,0,9.655,0.223,19.311-3.169c0,0,0.802,9.517-9.655,10.154
					C2233.606,708.17,2230.032,700.815,2230.032,700.815z"/>
			</g>
			<g>
				<path style="fill:#FFFFFF;" d="M2230.032,700.815c0,0,2.336,1.938,7.788,1.915c5.451-0.023,11.522-5.084,11.522-5.084
					S2237.709,700.843,2230.032,700.815z"/>
			</g>
			<g>
				<g>
					<path style="fill:#060633;" d="M2242.52,678.585c-0.188-0.051-0.35-0.187-0.428-0.382c-0.132-0.328,0.027-0.702,0.356-0.835
						c0.194-0.077,4.521-2.303,8.323,1.856c0.239,0.262,0.234,0.664-0.023,0.909c-0.258,0.244-0.614,0.176-0.91-0.022
						c-2.951-1.985-6.75-1.612-6.911-1.549C2242.792,678.616,2242.65,678.62,2242.52,678.585z"/>
				</g>
			</g>
			<g>
				<path style="fill:#060633;" d="M2247.606,685.651c0.05,1.533-0.813,2.805-1.926,2.84c-1.112,0.035-2.054-1.179-2.103-2.712
					c-0.049-1.534,0.813-2.805,1.926-2.841C2246.617,682.903,2247.559,684.117,2247.606,685.651z"/>
			</g>
			<g>
				<g>
					<path style="fill:#060633;" d="M2219.572,681.938c-0.194,0.023-0.396-0.04-0.543-0.19c-0.246-0.254-0.242-0.659,0.012-0.907
						c0.15-0.146,3.303-3.852,8.403-1.456c0.32,0.152,0.47,0.526,0.325,0.851c-0.146,0.324-0.502,0.396-0.85,0.325
						c-3.486-0.71-6.855,1.081-6.981,1.202C2219.834,681.862,2219.705,681.92,2219.572,681.938z"/>
				</g>
			</g>
			<g>
				<path style="fill:#060633;" d="M2226.966,686.532c0.63,1.399,0.316,2.903-0.698,3.36c-1.016,0.456-2.35-0.308-2.979-1.707
					c-0.629-1.399-0.315-2.904,0.699-3.36C2225.004,684.368,2226.337,685.132,2226.966,686.532z"/>
			</g>
			<g>
				<path style="fill:#E28569;" d="M2233.252,649.698c0,0,0.608,12.1,15.719,14.162c15.109,2.063,25.531,8.456,23.501,19.34
					c-2.028,10.886-26.384,33.467-8.484,42.214c17.9,8.746,14.091-7.563,33.497-3.782c19.406,3.782,22.906-22.132,9.544-37.171
					c-13.361-15.039-7.95-54.834-58.058-53.069c-50.107,1.765-31.749,41.741-31.749,41.741S2233.282,663.06,2233.252,649.698z"/>
			</g>
			<g>
				<path style="fill:#FFFFFF;" d="M2269.142,727.653c-3.771-1.522-6.088-3.789-6.889-6.738
					c-2.202-8.114,7.253-20.371,15.597-31.185c2.195-2.847,4.27-5.535,6.107-8.102c5.102-7.122,5.54-15.28,1.174-21.822
					c-4.789-7.175-13.908-10.205-23.804-7.913c-9.856,2.287-16.642,0.222-20.595-1.912c-4.296-2.318-6.223-5.14-6.303-5.258
					l0.338-0.229c0.078,0.113,7.873,11.312,26.468,7.002c10.06-2.335,19.35,0.764,24.235,8.083
					c4.397,6.589,3.945,15.13-1.182,22.286c-1.842,2.571-3.919,5.264-6.116,8.113c-8.286,10.74-17.675,22.911-15.526,30.831
					c0.776,2.858,2.951,4.974,6.647,6.466L2269.142,727.653z"/>
			</g>
			<g>
				<g>
					<path style="fill:#6F4975;" d="M2218.521,704.246c-4.245-1.563-7.979-6.254-9.979-12.544
						c-3.264-10.252-0.973-21.649,5.107-25.412c2.264-1.436,4.809-1.654,7.344-0.727c4.245,1.563,7.98,6.253,9.98,12.524l0,0
						c3.263,10.234,0.973,21.65-5.108,25.431c-1.363,0.855-2.826,1.272-4.327,1.272
						C2220.539,704.79,2219.529,704.608,2218.521,704.246z M2229.772,678.487c-1.881-5.926-5.326-10.307-9.216-11.742
						c-2.19-0.782-4.336-0.582-6.244,0.599c-5.626,3.491-7.672,14.252-4.572,23.977c1.881,5.908,5.327,10.308,9.217,11.743
						c2.172,0.764,4.335,0.582,6.234-0.6C2230.817,698.956,2232.871,688.194,2229.772,678.487L2229.772,678.487z"/>
				</g>
			</g>
			<g style="opacity:0.3;">
				<path style="fill:#FFFFFF;" d="M2263.671,671.433c2.268,9.957-1.356,20.648-8.095,23.878
					c-6.739,3.231-14.041-2.222-16.309-12.178c-2.268-9.957,1.356-20.648,8.096-23.879
					C2254.103,656.023,2261.403,661.477,2263.671,671.433z"/>
			</g>
			<g style="opacity:0.3;">
				<path style="fill:#FFFFFF;" d="M2231.242,678.924c2.273,10.002-0.754,20.849-6.762,24.226
					c-6.008,3.377-12.723-1.993-14.996-11.996c-2.273-10.002,0.754-20.849,6.762-24.226
					C2222.255,663.55,2228.968,668.921,2231.242,678.924z"/>
			</g>
			<g>
				<g>
					<path style="fill:#6F4975;" d="M2246.169,695.447c-4.345-2.108-7.662-6.871-9.099-13.069
						c-2.471-10.634,1.555-22.123,8.98-25.613c2.99-1.399,6.153-1.382,9.18,0.072c4.336,2.109,7.645,6.871,9.071,13.053l0,0
						c2.481,10.651-1.546,22.14-8.98,25.612c-1.472,0.709-2.99,1.054-4.508,1.054
						C2249.26,696.556,2247.695,696.174,2246.169,695.447z M2246.578,657.892c-6.908,3.254-10.625,14.105-8.289,24.195
						c1.336,5.744,4.489,10.324,8.435,12.232c2.646,1.236,5.443,1.255,8.07,0.056c6.917-3.254,10.634-14.106,8.289-24.194l0,0
						c-1.326-5.727-4.472-10.289-8.406-12.216c-1.346-0.655-2.735-0.982-4.127-0.982
						C2249.214,656.982,2247.878,657.291,2246.578,657.892z"/>
				</g>
			</g>
			<g>
				<g>
					<path style="fill:#6F4975;" d="M2229.909,682.65c0.264,0,0.526-0.091,0.745-0.272l0,0c0.127-0.11,3.172-2.491,8.426-1.491
						c0.617,0.091,1.254-0.291,1.381-0.928c0.127-0.636-0.291-1.254-0.928-1.363c-6.343-1.326-10.206,1.836-10.379,1.964
						c-0.49,0.418-0.564,1.163-0.146,1.654C2229.236,682.504,2229.572,682.65,2229.909,682.65z"/>
				</g>
			</g>
		</g>
		<g>
			<path style="fill:#2F1A31;" d="M2376.466,776.66c1.452,4.215-9.498,12.106-24.459,17.625
				c-14.961,5.518-28.266,6.575-29.718,2.359c-1.452-4.216,9.498-12.106,24.459-17.626
				C2361.708,773.501,2375.014,772.444,2376.466,776.66z"/>
		</g>
		<g>
			<g>
				<path style="fill:#F7B686;" d="M2273.767,922.503l-0.501-30.597c-0.068-4.182,3.148-7.688,7.32-7.985
					c21.21-1.518,36.058-8.096,44.192-19.599c11.294-15.974,10.103-40.784,6.955-57.989c-1.61-8.805,1.296-14.692,11.931-20.337
					c0,0,9.151-5.033,20.434-6.954c4.52-0.771,9.006,1.046,10.172,5.479c1.824,6.94,4.187,17.735,5.314,30.439
					c2.676,30.172-3.143,56.418-16.83,75.898c-16.799,23.911-43.878,37.141-80.566,39.389
					C2277.683,930.523,2273.84,927.015,2273.767,922.503z"/>
			</g>
		</g>
		<g style="opacity:0.5;">
			<path style="fill:#E08B65;" d="M2351.747,882.864c-1.457,0-2.807-0.417-3.896-1.294c-3.336-2.687-2.974-8.689,0.807-13.383
				c3.778-4.693,9.566-6.326,12.902-3.64c3.334,2.686,2.974,8.688-0.807,13.382C2358.209,881.091,2354.752,882.864,2351.747,882.864
				z M2357.658,865.3c-2.375,0-5.277,1.536-7.403,4.176c-3.018,3.746-3.528,8.554-1.116,10.497c2.411,1.94,6.999,0.417,10.018-3.329
				c3.018-3.748,3.529-8.556,1.117-10.498C2359.56,865.571,2358.655,865.3,2357.658,865.3z"/>
		</g>
		<g>
			<path style="fill:#E28569;" d="M2306.902,1000.023c0,0-116.569-22.268-154.365-11.765l18.124,26.859l67.377,3.813
				L2306.902,1000.023z"/>
		</g>
		<g>
			<g>
				<path style="fill:#2F1A31;" d="M2259.832,886.852l-100.48,0.038c-2.104,0.001-3.973-1.336-4.637-3.318l-20.905-62.352
					c-1.053-3.14,1.3-6.381,4.634-6.383l96.629-0.037c4.403-0.001,8.313,2.797,9.704,6.946l19.688,58.723
					C2265.518,883.607,2263.164,886.85,2259.832,886.852z"/>
			</g>
			<g>
				<path style="fill:#2F1A31;" d="M2253.525,886.854l-100.48,0.039c-2.104,0-3.973-1.337-4.638-3.318l-20.903-62.352
					c-1.053-3.142,1.299-6.383,4.632-6.385l96.63-0.036c4.403-0.002,8.313,2.796,9.704,6.946l19.688,58.723
					C2259.211,883.61,2256.857,886.852,2253.525,886.854z"/>
			</g>
			<g>
				<path style="fill:#DEEBE9;" d="M2183.106,848.809c-0.001-2.367,2.729-3.334,5.113-3.334c2.385-0.002,6.278,2.597,6.255,5.913
					c-0.025,3.58-2.822,4.047-5.207,4.048C2186.884,855.437,2183.107,851.823,2183.106,848.809z"/>
			</g>
			<g>
				<path style="fill:#436E8E;" d="M2246.366,846.321c-0.05-0.186-4.986-18.672-8.181-24.414c-3.137-5.641-7.026-6.782-7.065-6.793
					l0.174-0.629c0.169,0.047,4.181,1.206,7.462,7.104c3.234,5.814,8.038,23.802,8.241,24.565L2246.366,846.321z"/>
			</g>
			<g>
				<polygon style="fill:#436E8E;" points="2256.517,876.599 2248.676,853.214 2249.294,853.005 2257.135,876.39 				"/>
			</g>
		</g>
		<g>
			<g>
				<path style="fill:#F7B686;" d="M2128.145,864.583c0,0-1.665,13.089,9.41,14.331c14.11,1.584,33.451-11.05,24.527-12.186
					c-7.913-1.007-19.54,0.471-19.54,0.471s29.525-4.198,26.777-10.479c-2.747-6.281-28.099-2.301-28.099-2.301
					s28.457-6.996,24.055-11.975s-27.438-1.518-27.438-1.518s28.114-5.233,22.872-10.884c-5.243-5.65-19.348,0.215-25.815,1.244
					c-6.112,0.974-7.61,5.514-6.468,11.771c0,0-2.246,7.034-0.537,10.892c0.656,1.48-0.546,3.244-0.543,4.41
					C2127.351,860.59,2128.145,864.583,2128.145,864.583z"/>
			</g>
		</g>
		<g>
			<g>
				<g>
					<path style="fill:#F7B686;" d="M2288.374,881.979c0,0-7.448-22.544-20.204-28.065c-12.754-5.519-33.221-2.928-26.04,2.174
						c7.18,5.1,18.153,9.083,18.153,9.083s-23.846-7.406-23.163-1.08c0.683,6.327,21.484,12.569,21.484,12.569
						s-29.078-6.553-26.497-0.785c2.58,5.768,24.705,10.59,24.705,10.59s-27.299-5.016-24.145,1.614
						c3.154,6.63,22.586,3.998,23.27,10.325s5.535,31.228,23.354,31.478L2288.374,881.979z"/>
				</g>
			</g>
			<g>
				<path style="fill:#DD8964;" d="M2268.785,870.412c-1.731-3.643-8.512-4.723-8.58-4.733l0.156-1.015
					c0.301,0.046,7.389,1.178,9.351,5.308L2268.785,870.412z"/>
			</g>
			<g>
				<path style="fill:#DD8964;" d="M2268.898,882.961c-3.607-4.824-10.296-5.782-10.362-5.791l0.137-1.018
					c0.291,0.04,7.177,1.02,11.046,6.194L2268.898,882.961z"/>
			</g>
			<g>
				<path style="fill:#DD8964;" d="M2266.385,892.275c-1.509-4.021-9.568-5.29-9.65-5.302l0.155-1.016
					c0.355,0.054,8.737,1.378,10.457,5.957L2266.385,892.275z"/>
			</g>
		</g>
		<g>
			<path style="fill:#DD8964;" d="M2139.174,879.639c-2.275,0-4.403-0.334-5.627-1.35l0.655-0.791
				c2.589,2.15,11.017,0.655,14.048-0.102l0.247,0.995C2148.194,878.467,2143.429,879.639,2139.174,879.639z"/>
		</g>
	</g>
	<g>
		<g>
			<path style="fill:#96B4E0;" d="M1479.328,975.864l-444.144,19.594c-36.05,1.591-66.682-22.493-68.188-53.612l-21.217-438.054
				c-1.502-31.021,26.519-57.182,62.477-58.327l480.31-15.307c37.535-1.196,68.413,25.257,67.297,57.652l-14.951,433.767
				C1539.906,950.753,1513.109,974.373,1479.328,975.864z"/>
		</g>
		<g>
			<g>
				<path style="fill:#DEEBE9;" d="M1235.114,727.321l-205.905,7.178c-12.595,0.439-23.043-9.652-23.043-22.254V498.371
					c0-12.59,10.429-22.676,23.011-22.255l205.905,6.878c12.001,0.4,21.523,10.246,21.523,22.255v199.817
					C1256.605,717.063,1247.104,726.903,1235.114,727.321z"/>
			</g>
			<g>
				<path style="fill:#E28569;" d="M1068.496,540.416c0-12.66,10.318-21.731,22.921-22.923c19.323-1.829,24.132,13.111,24.132,25.77
					c0,12.66-11.04,21.013-27.424,21.013C1075.467,564.276,1068.496,553.074,1068.496,540.416z"/>
			</g>
			<g>
				<path style="fill:#E28569;" d="M1049.375,626.842l-19.543,42.92c-5.831,12.805,2.736,27.814,15.876,27.814h171.365
					c12.112,0,20.653-12.926,16.789-25.41l-38.688-125.022c-5.006-16.176-25.452-17.807-32.575-2.598l-40.822,87.165
					c-5.239,11.19-18.766,14.023-27.453,5.753l-17.404-16.569C1068.169,612.565,1054.536,615.509,1049.375,626.842z"/>
			</g>
		</g>
		<g>
			<g>
				<path style="fill:#DEEBE9;" d="M1488.716,548.289H1305.93c-4.023,0-10.214-3.714-10.748-7.246
					c-1.096-7.247,6.713-9.318,10.736-9.318l182.798,3.604c4.022,0,7.313,2.917,7.313,6.48l0,0
					C1496.029,545.373,1492.738,548.289,1488.716,548.289z"/>
			</g>
			<g>
				<path style="fill:#DEEBE9;" d="M1441.236,517.862h-137.969c-3.036,0-7.708-2.984-8.111-5.823
					c-0.828-5.821,5.066-7.485,8.103-7.485l137.978,2.895c3.036,0,5.521,2.342,5.521,5.206l0,0
					C1446.758,515.519,1444.272,517.862,1441.236,517.862z"/>
			</g>
			<g>
				<path style="fill:#DEEBE9;" d="M1441.236,583.345h-137.969c-3.036,0-7.708-2.984-8.111-5.823
					c-0.828-5.822,5.066-7.485,8.103-7.485l137.978,2.895c3.036,0,5.521,2.344,5.521,5.207l0,0
					C1446.758,581.002,1444.272,583.345,1441.236,583.345z"/>
			</g>
		</g>
		<g>
			<g>
				<path style="fill:#DEEBE9;" d="M1488.716,728.001H1305.93c-4.023,0-10.214-3.714-10.748-7.246
					c-1.096-7.247,6.713-9.318,10.736-9.318l182.798,3.603c4.022,0,7.313,2.917,7.313,6.481l0,0
					C1496.029,725.086,1492.738,728.001,1488.716,728.001z"/>
			</g>
			<g>
				<path style="fill:#DEEBE9;" d="M1441.236,697.574h-137.969c-3.036,0-7.708-2.984-8.111-5.822
					c-0.828-5.822,5.066-7.485,8.103-7.485l137.978,2.894c3.036,0,5.521,2.343,5.521,5.207l0,0
					C1446.758,695.231,1444.272,697.574,1441.236,697.574z"/>
			</g>
		</g>
		<g>
			<g>
				<path style="fill:#DEEBE9;" d="M1231.52,836.136h-208.873c-4.598,0-11.671-3.634-12.281-7.089
					c-1.252-7.09,7.67-9.115,12.268-9.115l208.887,3.525c4.598,0,8.358,2.853,8.358,6.34l0,0
					C1239.878,833.283,1236.117,836.136,1231.52,836.136z"/>
			</g>
			<g>
				<path style="fill:#DEEBE9;" d="M1488.448,836.136h-208.873c-4.597,0-11.671-3.634-12.28-7.089
					c-1.253-7.09,7.671-9.115,12.267-9.115l208.887,3.525c4.598,0,8.358,2.853,8.358,6.34l0,0
					C1496.807,833.283,1493.046,836.136,1488.448,836.136z"/>
			</g>
			<g>
				<path style="fill:#DEEBE9;" d="M1231.52,905.09h-208.873c-4.598,0-11.671-3.634-12.281-7.089
					c-1.252-7.089,7.67-9.114,12.268-9.114l208.887,3.524c4.598,0,8.358,2.853,8.358,6.339l0,0
					C1239.878,902.236,1236.117,905.09,1231.52,905.09z"/>
			</g>
			<g>
				<path style="fill:#DEEBE9;" d="M1488.448,905.09h-208.873c-4.597,0-11.671-3.634-12.28-7.089
					c-1.253-7.089,7.671-9.114,12.267-9.114l208.887,3.524c4.598,0,8.358,2.853,8.358,6.339l0,0
					C1496.807,902.236,1493.046,905.09,1488.448,905.09z"/>
			</g>
			<g>
				<path style="fill:#DEEBE9;" d="M1177.264,798.271h-157.657c-3.471,0-8.81-2.92-9.271-5.696c-0.945-5.694,5.79-7.322,9.26-7.322
					l157.668,2.832c3.471,0,6.311,2.291,6.311,5.093l0,0C1183.574,795.977,1180.734,798.271,1177.264,798.271z"/>
			</g>
			<g>
				<path style="fill:#DEEBE9;" d="M1497.384,798.271h-89.146c-1.961,0-4.98-2.92-5.241-5.696c-0.533-5.694,3.274-7.322,5.236-7.322
					l89.15,2.832c1.962,0,3.567,2.291,3.567,5.093l0,0C1500.951,795.977,1499.346,798.271,1497.384,798.271z"/>
			</g>
			<g>
				<path style="fill:#DEEBE9;" d="M1375.682,798.271h-157.658c-3.471,0-8.81-2.92-9.271-5.696
					c-0.944-5.694,5.791-7.322,9.261-7.322l157.668,2.832c3.471,0,6.31,2.291,6.31,5.093l0,0
					C1381.991,795.977,1379.152,798.271,1375.682,798.271z"/>
			</g>
			<g>
				<path style="fill:#DEEBE9;" d="M1177.264,866.383h-157.657c-3.471,0-8.81-2.919-9.271-5.695c-0.945-5.695,5.79-7.323,9.26-7.323
					l157.668,2.832c3.471,0,6.311,2.293,6.311,5.095l0,0C1183.574,864.091,1180.734,866.383,1177.264,866.383z"/>
			</g>
			<g>
				<path style="fill:#DEEBE9;" d="M1497.384,866.383h-89.146c-1.961,0-4.98-2.919-5.241-5.695
					c-0.533-5.695,3.274-7.323,5.236-7.323l89.15,2.832c1.962,0,3.567,2.293,3.567,5.095l0,0
					C1500.951,864.091,1499.346,866.383,1497.384,866.383z"/>
			</g>
			<g>
				<path style="fill:#DEEBE9;" d="M1375.682,866.383h-157.658c-3.471,0-8.81-2.919-9.271-5.695
					c-0.944-5.695,5.791-7.323,9.261-7.323l157.668,2.832c3.471,0,6.31,2.293,6.31,5.095l0,0
					C1381.991,864.091,1379.152,866.383,1375.682,866.383z"/>
			</g>
		</g>
	</g>
	<g>
		<path style="fill:#C4D7D4;" d="M1897.128,1311.748l-228.224,15.129c-16.63,1.103-30.679-11.16-30.275-26.427l6.566-248.506
			c0.378-14.33,13.408-25.646,29.054-25.231l221.657,5.875c15.274,0.404,27.428,11.862,27.428,25.856v227.502
			C1923.334,1299.508,1911.897,1310.769,1897.128,1311.748z"/>
	</g>
	<g>
		<path style="fill:#B2C9C6;" d="M1836.739,1291.014h-148.742c-3.274,0-8.311-3.412-8.745-6.657
			c-0.892-6.656,5.462-8.558,8.736-8.558l148.751,3.31c3.274,0,5.952,2.678,5.952,5.952l0,0
			C1842.691,1288.334,1840.014,1291.014,1836.739,1291.014z"/>
	</g>
	<g>
		<path style="fill:#B2C9C6;" d="M1798.104,1263.065h-112.271c-2.471,0-6.273-2.741-6.602-5.348
			c-0.673-5.348,4.123-6.875,6.594-6.875l112.279,2.658c2.472,0,4.493,2.152,4.493,4.782l0,0
			C1802.597,1260.914,1800.575,1263.065,1798.104,1263.065z"/>
	</g>
	<g>
		<path style="fill:#9BBCB6;" d="M1554.955,1296.138l-228.224,14.302c-16.631,1.042-30.68-10.55-30.276-24.98l6.566-234.896
			c0.38-13.546,13.408-24.242,29.054-23.85l221.657,5.553c15.274,0.383,27.428,11.212,27.428,24.441v215.043
			C1581.16,1284.568,1569.724,1295.212,1554.955,1296.138z"/>
	</g>
	<g>
		<g>
			<path style="fill:#C4D7D4;" d="M1494.566,1243.959h-148.743c-3.273,0-8.311-3.411-8.745-6.655
				c-0.892-6.656,5.463-8.559,8.736-8.559l148.752,3.31c3.273,0,5.952,2.679,5.952,5.953l0,0
				C1500.519,1241.281,1497.84,1243.959,1494.566,1243.959z"/>
		</g>
		<g>
			<path style="fill:#C4D7D4;" d="M1494.566,1273.376h-148.743c-3.273,0-8.311-3.411-8.745-6.656
				c-0.892-6.656,5.463-8.558,8.736-8.558l148.752,3.309c3.273,0,5.952,2.68,5.952,5.953l0,0
				C1500.519,1270.698,1497.84,1273.376,1494.566,1273.376z"/>
		</g>
		<g>
			<path style="fill:#C4D7D4;" d="M1455.931,1216.013h-112.272c-2.471,0-6.272-2.741-6.601-5.349
				c-0.673-5.348,4.123-6.875,6.594-6.875l112.279,2.659c2.471,0,4.492,2.151,4.492,4.782l0,0
				C1460.423,1213.86,1458.401,1216.013,1455.931,1216.013z"/>
		</g>
	</g>
	<g>
		<path style="fill:#C4D7D4;" d="M1212.146,1311.813l-228.224,15.064c-16.631,1.098-30.679-11.111-30.276-26.313l6.567-247.439
			c0.378-14.269,13.408-25.536,29.053-25.124l221.658,5.85c15.274,0.403,27.428,11.812,27.428,25.747v226.525
			C1238.353,1299.626,1226.916,1310.838,1212.146,1311.813z"/>
	</g>
	<g>
		<g>
			<path style="fill:#B2C9C6;" d="M1171.806,1133.019h-148.742c-3.274,0-8.311-3.111-8.745-6.069
				c-0.893-6.07,5.462-7.805,8.736-7.805l148.751,3.019c3.273,0,5.952,2.441,5.952,5.428l0,0
				C1177.758,1130.576,1175.079,1133.019,1171.806,1133.019z"/>
		</g>
		<g>
			<path style="fill:#B2C9C6;" d="M1171.806,1159.844h-148.742c-3.274,0-8.311-3.11-8.745-6.069
				c-0.893-6.07,5.462-7.804,8.736-7.804l148.751,3.018c3.273,0,5.952,2.443,5.952,5.429l0,0
				C1177.758,1157.402,1175.079,1159.844,1171.806,1159.844z"/>
		</g>
		<g>
			<path style="fill:#B2C9C6;" d="M1133.17,1107.533h-112.272c-2.471,0-6.273-2.5-6.602-4.877c-0.673-4.877,4.123-6.271,6.594-6.271
				l112.279,2.425c2.472,0,4.493,1.962,4.493,4.361l0,0C1137.663,1105.57,1135.642,1107.533,1133.17,1107.533z"/>
		</g>
	</g>
	<g>
		<g>
			<path style="fill:#B2C9C6;" d="M1171.806,1220.037h-148.742c-3.274,0-8.311-3.111-8.745-6.07
				c-0.893-6.07,5.462-7.805,8.736-7.805l148.751,3.018c3.273,0,5.952,2.443,5.952,5.429l0,0
				C1177.758,1217.594,1175.079,1220.037,1171.806,1220.037z"/>
		</g>
		<g>
			<path style="fill:#B2C9C6;" d="M1171.806,1246.862h-148.742c-3.274,0-8.311-3.111-8.745-6.069
				c-0.893-6.07,5.462-7.805,8.736-7.805l148.751,3.018c3.273,0,5.952,2.442,5.952,5.428l0,0
				C1177.758,1244.42,1175.079,1246.862,1171.806,1246.862z"/>
		</g>
		<g>
			<path style="fill:#B2C9C6;" d="M1133.17,1194.551h-112.272c-2.471,0-6.273-2.499-6.602-4.878
				c-0.673-4.876,4.123-6.269,6.594-6.269l112.279,2.424c2.472,0,4.493,1.963,4.493,4.361l0,0
				C1137.663,1192.588,1135.642,1194.551,1133.17,1194.551z"/>
		</g>
	</g>
	<g>
		<g>
			<path style="fill:#2F1A31;" d="M1190.541,1367.184l-52.598,5.254c-4.378,0.437-7.762,5.787-7.737,12.231l0.02,5.4
				c0.025,6.755,3.774,12.217,8.372,12.199l52.074-0.195L1190.541,1367.184z"/>
		</g>
		<g>
			<path style="fill:#2F1A31;" d="M2119.664,1365.754c0,0,13.349,2.191,12.881,5.094c-0.755,4.682-12.843,5.19-12.843,5.19
				L2119.664,1365.754z"/>
		</g>
		<g>
			<path style="fill:#2F1A31;" d="M1228.376,1375.088c-0.546,0-1.099-0.059-1.653-0.184c-4.059-0.908-6.612-4.936-5.704-8.994
				l6.889-30.77c0.045-0.202,0.099-0.401,0.16-0.598c2.882-9.241,11.649-15.444,21.327-15.115l265.12,9.4
				c4.157,0.147,7.408,3.638,7.261,7.795c-0.148,4.155-3.627,7.39-7.794,7.26l-265.12-9.4c-2.82-0.084-5.395,1.659-6.335,4.307
				l-6.809,30.411C1234.933,1372.705,1231.822,1375.088,1228.376,1375.088z"/>
		</g>
		<g>
			<path style="fill:#E28569;" d="M2043.632,1411.313l-842.948-2.565c-8.035-0.051-14.531-6.564-14.561-14.601l-0.075-19.794
				c-0.029-7.979,6.328-14.517,14.305-14.708l841.505-19.107L2043.632,1411.313z"/>
		</g>
		<g>
			<path style="fill:#2F1A31;" d="M1320.428,1356.77c0,0-8.423,21.714,0.198,52.752l53.698,0.347c0,0-14.016-28.904-0.204-54.384
				L1320.428,1356.77z"/>
		</g>
		<g>
			<path style="fill:#96A7E2;" d="M2119.665,1365.812l0.034,9.401c0.011,2.622-1.516,5.006-3.9,6.095l-61.462,28.039
				c-8.993,4.103-19.737,1.632-25.767-6.2c-4.406-5.724-7.837-14.133-6.948-26.236c1.136-15.48,4.837-24.57,8.876-29.903
				c4.28-5.655,11.72-7.917,18.502-5.839l67.784,20.765C2118.49,1362.455,2119.657,1364.027,2119.665,1365.812z"/>
		</g>
		<g>
			<path style="fill:#2F1A31;" d="M1202.396,1397.586c-0.638,0-1.156-0.517-1.158-1.154c-0.002-0.64,0.515-1.161,1.154-1.164
				l89.605-0.336c0.002,0,0.003,0,0.003,0c0.639,0,1.158,0.516,1.159,1.154c0.003,0.64-0.514,1.16-1.153,1.163l-89.605,0.337
				C1202.399,1397.586,1202.398,1397.586,1202.396,1397.586z"/>
		</g>
		<g>
			<path style="fill:#2F1A31;" d="M1391.649,1396.875c-0.638,0-1.156-0.517-1.159-1.154c-0.002-0.64,0.515-1.16,1.154-1.163
				l605.992-2.275c0.002,0,0.003,0,0.004,0c0.639,0,1.156,0.517,1.159,1.155c0.002,0.64-0.515,1.16-1.154,1.163l-605.992,2.274
				C1391.652,1396.875,1391.65,1396.875,1391.649,1396.875z"/>
		</g>
	</g>
	<g>
		<g>
			<g>
				<path style="fill:#74A1BD;" d="M1867.429,862.604c0-8.659,7.02-15.68,15.679-15.68c8.66,0,15.68,7.02,15.68,15.68
					c0,8.66-7.02,15.681-15.68,15.681C1874.448,878.284,1867.429,871.264,1867.429,862.604z"/>
			</g>
		</g>
		<g>
			<g>
				<path style="fill:#74A1BD;" d="M1854.491,848.82c-1.435,0-2.886-0.399-4.181-1.238c-3.569-2.313-4.59-7.081-2.276-10.652
					c7.739-11.95,20.852-19.085,35.073-19.085c13.3,0,25.922,6.423,33.765,17.181c2.507,3.438,1.751,8.256-1.688,10.762
					c-3.437,2.508-8.255,1.752-10.761-1.685c-4.953-6.795-12.922-10.852-21.316-10.852c-8.977,0-17.256,4.507-22.145,12.054
					C1859.489,847.58,1857.016,848.82,1854.491,848.82z"/>
			</g>
		</g>
		<g>
			<g>
				<path style="fill:#74A1BD;" d="M1831.624,833.062c-1.435,0-2.887-0.399-4.18-1.237c-3.571-2.314-4.591-7.082-2.278-10.652
					c12.883-19.892,34.706-31.767,58.377-31.767c22.133,0,43.141,10.69,56.197,28.597c2.506,3.438,1.751,8.256-1.687,10.762
					c-3.436,2.507-8.255,1.753-10.762-1.686c-10.166-13.943-26.521-22.268-43.749-22.268c-18.426,0-35.415,9.247-45.447,24.734
					C1836.622,831.822,1834.148,833.062,1831.624,833.062z"/>
			</g>
		</g>
	</g>
	<g>
		<path style="fill:#56335B;" d="M2138.382,1449.826H710.504c-10.418,0-19.533-4.005-22.211-9.759l-8.077-17.358
			c-3.891-8.364,7.197-16.555,22.346-16.504l1442.559,4.779c15.339,0.051,26.287,8.509,21.88,16.904l-6.605,12.58
			C2157.479,1446.021,2148.531,1449.826,2138.382,1449.826z"/>
	</g>
	<g>
		<g>
			<path style="fill:#F7B686;" d="M940.709,1212.346c3.916,6.979,43.249,67.904,35.017,127.493l-42.81-15.479l-19.563-80.323
				L940.709,1212.346z"/>
		</g>
		<g>
			<path style="fill:#E28569;" d="M769.766,1187.376c0,0,26.304-47.175,90.326-34.132c64.025,13.043,98.965,104.681,81.6,286.187
				c0,0-101.713-40.438-233.967-7.84C707.725,1431.591,729.493,1255.81,769.766,1187.376z"/>
		</g>
		<g>
			<path style="fill:#E28569;" d="M720.934,1168.313l45.002,44.926c0,0,115.374,31.171,147.418,30.798
				c32.045-0.373,44.658-23.794,44.658-23.794s-27.045-42.83-81.77-62.203c-5.141-1.827-10.519-3.438-16.146-4.792
				c-9.449-2.266-19.055-3.574-28.588-4.144C774.856,1145.732,720.934,1168.313,720.934,1168.313z"/>
		</g>
		<g>
			<path style="fill:#2F1A31;" d="M720.935,1168.314c-7.194,7.818,3.899,16.36,16.327,28.768
				c12.426,12.405,25.264,19.64,28.673,16.158s-3.9-16.361-16.327-28.768C737.181,1172.067,724.234,1164.728,720.935,1168.314z"/>
		</g>
		<g>
			<path style="fill:#F7B686;" d="M759.95,1213.424c0,0,0.671-8.973-10.606-20.429c-6.793-6.9-15.393-11.409-21.158-13.905
				c-3.429-1.483-7.389,0.184-8.749,3.69l-3.606,9.303l16.799,10.816L759.95,1213.424z"/>
		</g>
		<g>
			<path style="fill:#436E8E;" d="M839.473,1379.829c0,0-138.836-75.236-188.6,6.837c-36.837,60.756,18.536,117.336,223.93,111.588
				c0,0,20.299-9.508,15.356-58.823C888.199,1419.891,839.473,1379.829,839.473,1379.829z"/>
		</g>
		<g>
			<path style="fill:#436E8E;" d="M839.473,1379.829c0,0,184.908-75.743,221.496-28.394c42.049,54.42,1.725,146.818-193.186,113.789
				l-23.753-25.794L839.473,1379.829z"/>
		</g>
		<g>
			<path style="fill:#2F1A31;" d="M891.334,1454.188c0,0,37.742,1.492,56.984,10.93c19.243,9.438,8.968,32.474-30.103,31.858
				c-39.071-0.615-36.104-6.429-36.104-6.429S892.943,1477.24,891.334,1454.188z"/>
		</g>
		<g>
			<path style="fill:#020202;" d="M875.029,1498.571l-0.452-0.634c21.563-15.386,15.767-54.897,15.234-58.219l-140.15-51.009
				l0.266-0.731l140.576,51.163l0.039,0.222C890.617,1439.79,897.833,1482.3,875.029,1498.571z"/>
		</g>
		<g>
			<g>
				<path style="fill:#F7B686;" d="M847.719,1383.438c11.284,0.001,20.557-2.854,28.074-8.524
					c14.197-10.708,16.832-27.779,14.772-39.145l-13.583-7.897c-0.675-3.728-26.887,10.121-26.842,10.107
					c-0.12,0.039-12.51,3.624-55.468-18.329c-29.905-15.282-44.978-36.972-46.077-66.307c-0.831-22.115,9.028-34.536,11.354-39.919
					c0.31-0.718-14.452-15.518-14.029-17.023l-11.066-5.623c0.356-1.269-10.64-5.606-10.483-5.969l-8.541,7.274
					c-4.216,9.75-13.181,32.133-12.023,62.974c1.202,32.036,14.431,76.254,70.626,104.972
					C805.077,1375.689,829.129,1383.437,847.719,1383.438z"/>
			</g>
		</g>
		<g>
			<g>
				<path style="fill:#96B4E0;" d="M856.834,1385.237h119.817c2.509,0,4.735-1.595,5.526-3.96l24.899-74.359
					c1.255-3.745-1.553-7.609-5.526-7.609H886.326c-5.252,0-9.913,3.339-11.569,8.286l-23.45,70.033
					C850.053,1381.373,852.859,1385.237,856.834,1385.237z"/>
			</g>
			<g>
				<path style="fill:#96B4E0;" d="M864.354,1385.237h119.817c2.508,0,4.734-1.595,5.527-3.96l24.899-74.359
					c1.253-3.745-1.554-7.609-5.527-7.609H893.847c-5.252,0-9.913,3.339-11.57,8.286l-23.449,70.033
					C857.573,1381.373,860.38,1385.237,864.354,1385.237z"/>
			</g>
			<g>
				<path style="fill:#DEEBE9;" d="M948.308,1339.839c0-2.823-3.257-3.974-6.101-3.974c-2.842,0-7.483,3.099-7.455,7.055
					c0.032,4.269,3.369,4.823,6.211,4.823C943.806,1347.743,948.308,1343.433,948.308,1339.839z"/>
			</g>
			<g>
				<path style="fill:#96B4E0;" d="M820.27,1374.729h163.961v10.509h-167.37c-1.946,0-3.523-1.578-3.523-3.524v-0.051
					C813.338,1377.833,816.441,1374.729,820.27,1374.729z"/>
			</g>
			<g>
				<path style="fill:#436E8E;" d="M872.873,1336.902l-0.753-0.2c0.243-0.91,5.962-22.36,9.816-29.295
					c3.908-7.035,8.692-8.419,8.895-8.474l0.207,0.75c-0.047,0.014-4.684,1.375-8.421,8.101
					C878.81,1314.635,872.932,1336.68,872.873,1336.902z"/>
			</g>
			<g>
				<path style="fill:#436E8E;" d="M855.165,1375.118v-0.778c3.925,0,4.9-1.626,4.909-1.643l9.31-27.823l0.737,0.248l-9.337,27.888
					C860.712,1373.154,859.607,1375.118,855.165,1375.118z"/>
			</g>
		</g>
		<g>
			<path style="fill:#E08B65;" d="M740.002,1318.971c-0.427,0-0.874-0.061-1.334-0.184c-2.578-0.691-5.413-3.274-7.396-6.742l0,0
				c-3.036-5.31-3.117-10.808-0.186-12.516c0.915-0.533,2.044-0.642,3.263-0.316c2.579,0.691,5.413,3.274,7.397,6.741
				c3.036,5.311,3.118,10.809,0.185,12.518C741.362,1318.804,740.708,1318.971,740.002,1318.971z M733.014,1300.584
				c-0.429,0-0.811,0.097-1.143,0.29c-2.111,1.23-1.767,5.992,0.753,10.398l0,0c1.757,3.073,4.288,5.433,6.448,6.011
				c0.82,0.221,1.52,0.167,2.076-0.156c2.111-1.231,1.766-5.993-0.753-10.4c-1.758-3.072-4.288-5.432-6.448-6.01
				C733.615,1300.628,733.305,1300.584,733.014,1300.584z"/>
		</g>
		<g>
			<path style="fill:#F7B686;" d="M830.517,1148.992c7.872-0.231,13.842-1.041,18.372-6.367l14.014-16.484l4.079-4.799
				l23.984-28.219l-12.596,32.997l-7.564,19.805l-2.394,6.269c-1.625,4.255,0.523,6.238,2.035,11.217
				c0.613,2.016,4.746,14.428-6.022,14.504c-13.418,0.1-30.388-15.496-34.114-28.962
				C830.379,1148.966,830.446,1148.994,830.517,1148.992z"/>
		</g>
		<g>
			<path style="fill:#2F1A31;" d="M859.005,1115.551c0,0-26.411-25.383-11.175-46.809c15.236-21.424,19.042,34.386,19.042,34.386
				l-4.258,12.9L859.005,1115.551z"/>
		</g>
		<g>
			<path style="fill:#2F1A31;" d="M863.033,1125.571c-0.049,0.188-0.093,0.378-0.131,0.569c-2.451,11.129,7.815,19.822,7.815,19.822
				l0.089-0.038l7.564-19.805c-3.215-2.407-7.946-5.318-11.389-4.778C865.181,1121.624,863.735,1122.848,863.033,1125.571z"/>
		</g>
		<g>
			<path style="fill:#F7B686;" d="M918.947,1111.782c5.955-19.837-2.424-39.961-18.717-44.948
				c-16.292-4.988-34.327,7.051-40.284,26.887c-5.955,19.837,2.425,39.961,18.717,44.948
				C894.955,1143.657,912.99,1131.619,918.947,1111.782z"/>
		</g>
		<g>
			<path style="fill:#2F1A31;" d="M865.527,1090.854c0,0,8.41,6.117,15.459,0.948c7.05-5.169,12.035-10.071,27.82-2.127
				c15.784,7.945,33.065,4.379,36.256-4.568c3.19-8.945-4.328-15.796-14.243-15.353c-9.915,0.444,2.098-4.991-4.8-14.395
				c-6.896-9.403-24.392,0.284-33.064-4.377s-39.567-8.712-45.125,17.759L865.527,1090.854z"/>
		</g>
		<g>
			<path style="fill:#F7B686;" d="M858.928,1096.156c2.028,3.13,5.917,4.185,8.688,2.354c2.77-1.829,3.371-5.85,1.345-8.98
				c-2.028-3.13-5.917-4.184-8.689-2.354C857.503,1089.005,856.901,1093.026,858.928,1096.156z"/>
		</g>
		<g>
			<path style="fill:#FFFFFF;" d="M927.628,1082.01c-6.633,0-15.631-8.092-16.044-8.467l0.775-0.855
				c0.106,0.096,10.611,9.543,16.681,8.002c2.334-0.593,3.653-1.697,3.442-2.885c-0.199-1.131-1.859-2.209-4.205-1.964
				c-5.137,0.523-7.925-1.218-8.042-1.293l0.624-0.973c0.023,0.015,2.596,1.601,7.301,1.116c3.158-0.315,5.169,1.26,5.46,2.912
				c0.255,1.441-0.739,3.303-4.296,4.205C928.783,1081.946,928.214,1082.01,927.628,1082.01z"/>
		</g>
		<g>
			<path style="fill:#FFFFFF;" d="M900.36,1059.849c-2.189,0-4.454-0.323-6.612-1.169c-2.748-1.076-5.134-2.338-7.442-3.559
				c-4.477-2.365-8.34-4.409-12.55-3.591l-0.222-1.134c4.607-0.896,8.642,1.234,13.312,3.703c2.28,1.206,4.637,2.452,7.324,3.504
				c8.027,3.146,17.419-1.397,18.007-1.893l0.845,0.786C912.519,1057.076,906.766,1059.849,900.36,1059.849z"/>
		</g>
		<g>
			<path style="fill:#FFFFFF;" d="M855.839,1067.371c-0.169,0-0.325-0.025-0.468-0.079c-0.39-0.146-0.984-0.604-0.608-2.015
				l0.084-0.182c0.647-0.926,3.991-5.478,6.31-4.019c0.294,0.185,0.916,0.75,0.303,1.985
				C860.696,1064.599,857.616,1067.371,855.839,1067.371z M855.855,1065.672c-0.104,0.439-0.04,0.57-0.04,0.572
				c0.298,0.094,1.974-0.691,3.559-2.322c1.126-1.158,1.222-1.767,1.184-1.854C859.535,1061.42,857.178,1063.811,855.855,1065.672z"
				/>
		</g>
		<g>
			<g>
				<path style="fill:#060633;" d="M895.366,1103.729c0.188-0.026,0.36-0.139,0.46-0.318c0.168-0.304,0.06-0.687-0.241-0.856
					c-0.177-0.1-4.075-2.805-8.252,0.773c-0.264,0.225-0.309,0.617-0.09,0.888c0.218,0.271,0.57,0.247,0.88,0.091
					c3.09-1.566,6.705-0.731,6.854-0.649C895.1,1103.726,895.235,1103.748,895.366,1103.729z"/>
			</g>
		</g>
		<g>
			<path style="fill:#060633;" d="M889.594,1109.977c-0.236,1.486,0.438,2.832,1.507,3.004c1.069,0.173,2.126-0.893,2.361-2.379
				c0.235-1.486-0.44-2.832-1.508-3.005C890.885,1107.424,889.829,1108.489,889.594,1109.977z"/>
		</g>
		<g>
			<g>
				<path style="fill:#060633;" d="M917.192,1111.646c0.142,0.037,0.304-0.01,0.436-0.146c0.225-0.229,0.281-0.621,0.128-0.879
					c-0.091-0.15-1.908-3.951-6.103-1.986c-0.265,0.124-0.433,0.476-0.372,0.799c0.06,0.323,0.316,0.418,0.59,0.374
					c2.729-0.446,4.995,1.519,5.071,1.644C917.006,1111.555,917.095,1111.621,917.192,1111.646z"/>
			</g>
		</g>
		<g>
			<path style="fill:#060633;" d="M909.36,1115.166c-0.777,1.283-0.661,2.787,0.261,3.357c0.924,0.57,2.303-0.008,3.082-1.292
				c0.777-1.284,0.661-2.788-0.262-3.357C911.519,1113.303,910.139,1113.881,909.36,1115.166z"/>
		</g>
		<g>
			<g>
				<path style="fill:#020202;" d="M891.483,1130.972c-3.757,0-9.43-1.107-12.797-7.058c-0.121-0.211-0.046-0.479,0.165-0.598
					c0.211-0.119,0.478-0.045,0.597,0.166c5.012,8.853,15.496,6.278,15.602,6.251c0.236-0.063,0.474,0.079,0.533,0.315
					c0.061,0.234-0.081,0.473-0.315,0.532C895.227,1130.592,893.683,1130.972,891.483,1130.972z"/>
			</g>
			<g>
				<path style="fill:#020202;" d="M877.795,1125.457c-0.045,0-0.092-0.007-0.138-0.022c-0.229-0.075-0.354-0.323-0.278-0.553
					c0.36-1.093,1.328-2.099,2.876-2.989c0.2-0.139,0.511-0.104,0.647,0.095c0.135,0.2,0.121,0.451-0.08,0.587
					c-0.021,0.015-0.065,0.041-0.129,0.077c-1.689,0.973-2.281,1.899-2.482,2.505
					C878.15,1125.341,877.979,1125.457,877.795,1125.457z"/>
			</g>
		</g>
		<g>
			<path style="fill:#CC6E58;" d="M866.967,1196.495c-35.652-1.025-48.544-31.974-48.671-32.286l1.8-0.727
				c0.121,0.301,12.57,30.086,46.927,31.074L866.967,1196.495z"/>
		</g>
		<g>
			<path style="fill:#CC6E58;" d="M850.573,1213.167c-0.185-0.115-18.523-11.843-20.897-32.925l1.928-0.217
				c2.272,20.162,19.823,31.388,20,31.498L850.573,1213.167z"/>
		</g>
		<g>
			
				<rect x="928.981" y="1218.232" transform="matrix(0.9499 -0.3125 0.3125 0.9499 -337.6312 352.1468)" style="fill:#CC6E58;" width="1.941" height="22.633"/>
		</g>
		<g>
			<path style="fill:#FFFFFF;" d="M912.873,1136.426c-2.256,0-4.289-0.843-5.936-2.476c-5.271-5.222-5.021-17.321,0.556-26.974
				c3.432-5.941,8.247-9.858,12.88-10.479c2.764-0.372,5.254,0.455,7.205,2.389c5.271,5.222,5.021,17.322-0.555,26.975
				c-3.433,5.94-8.248,9.858-12.88,10.478C913.713,1136.396,913.289,1136.426,912.873,1136.426z M921.624,1097.717
				c-0.353,0-0.713,0.023-1.079,0.072c-4.234,0.567-8.693,4.245-11.925,9.84c-5.299,9.172-5.642,20.564-0.765,25.396
				c1.651,1.638,3.764,2.335,6.114,2.022c4.234-0.566,8.692-4.245,11.924-9.839c5.299-9.173,5.642-20.564,0.766-25.396
				C925.265,1098.43,923.54,1097.717,921.624,1097.717z"/>
		</g>
		<g style="opacity:0.3;">
			<path style="fill:#FFFFFF;" d="M876.099,1092.793c-4.516,9.601-3.268,21.281,2.787,26.09c6.056,4.808,14.623,0.923,19.139-8.678
				c4.516-9.602,3.268-21.281-2.787-26.09C889.182,1079.307,880.613,1083.192,876.099,1092.793z"/>
		</g>
		<g style="opacity:0.3;">
			<path style="fill:#FFFFFF;" d="M907.043,1107.747c-4.531,9.646-3.919,21.35,1.368,26.143c5.286,4.791,13.245,0.855,17.777-8.79
				c4.532-9.646,3.919-21.35-1.367-26.141C919.533,1094.167,911.574,1098.102,907.043,1107.747z"/>
		</g>
		<g>
			<path style="fill:#FFFFFF;" d="M885.664,1121.461c-2.365,0-4.603-0.785-6.575-2.325c-6.688-5.223-8.161-17.807-3.287-28.054
				c2.843-5.977,7.257-10.061,12.111-11.207c3.331-0.787,6.516-0.092,9.209,2.011c6.688,5.222,8.161,17.807,3.287,28.053
				c-2.843,5.977-7.257,10.062-12.111,11.208C887.407,1121.357,886.527,1121.461,885.664,1121.461z M890.531,1080.866
				c-0.76,0-1.534,0.092-2.318,0.276c-4.402,1.04-8.602,4.965-11.234,10.5c-4.627,9.726-3.32,21.599,2.912,26.466
				c2.369,1.852,5.173,2.462,8.107,1.77c4.402-1.039,8.602-4.965,11.234-10.5c4.627-9.726,3.32-21.599-2.912-26.464
				C894.583,1081.557,892.614,1080.866,890.531,1080.866z"/>
		</g>
		<g>
			<path style="fill:#FFFFFF;" d="M907.817,1111.855c-0.365,0-0.725-0.162-0.964-0.472c-0.118-0.151-2.647-3.276-8.134-3.413
				c-0.672-0.017-1.204-0.574-1.187-1.246c0.017-0.672,0.566-1.176,1.246-1.187c6.72,0.167,9.873,4.191,10.004,4.362
				c0.408,0.533,0.307,1.297-0.227,1.706C908.335,1111.774,908.075,1111.855,907.817,1111.855z"/>
		</g>
	</g>
	<g>
		<g>
			<path style="fill:#DEEBE9;" d="M1448.508,1180.547l-106.256,3.704c-6.499,0.227-11.892-4.98-11.892-11.483v-110.368
				c0-6.496,5.382-11.701,11.875-11.484l106.255,3.549c6.194,0.207,11.107,5.288,11.107,11.484v103.115
				C1459.598,1175.253,1454.694,1180.331,1448.508,1180.547z"/>
		</g>
		<g>
			<g>
				<path style="fill:#436E8E;" d="M1362.525,1084.096c0-6.533,5.325-11.213,11.829-11.828c9.971-0.944,12.452,6.766,12.452,13.299
					s-5.697,10.843-14.151,10.843C1366.123,1096.409,1362.525,1090.629,1362.525,1084.096z"/>
			</g>
			<g>
				<path style="fill:#436E8E;" d="M1352.659,1128.696l-10.085,22.147c-3.01,6.607,1.411,14.354,8.191,14.354h88.432
					c6.25,0,10.658-6.67,8.664-13.114l-19.965-64.515c-2.583-8.349-13.134-9.19-16.81-1.341l-21.065,44.98
					c-2.705,5.774-9.685,7.237-14.169,2.969l-8.98-8.551C1362.356,1121.328,1355.322,1122.848,1352.659,1128.696z"/>
			</g>
		</g>
	</g>
	<g>
		<g>
			<g>
				<path style="fill:#DEEBE9;" d="M1854.721,1223.796l-141.704,4.939c-8.667,0.303-15.858-6.642-15.858-15.314v-147.188
					c0-8.664,7.177-15.605,15.836-15.315l141.704,4.732c8.26,0.276,14.813,7.052,14.813,15.316v137.515
					C1869.511,1216.736,1862.972,1223.509,1854.721,1223.796z"/>
			</g>
		</g>
		<g>
			<path style="fill:#E28569;" d="M1737.713,1097.959l-2.893,79.432c-0.423,11.607,11.954,19.258,22.148,13.689l75.146-41.055
				c6.704-3.663,7.152-13.125,0.825-17.404l-70.102-47.42C1752.359,1078.113,1738.174,1085.316,1737.713,1097.959z"/>
		</g>
	</g>
	<g>
		<g>
			<path style="fill:#F7B686;" d="M609.932,804.435c0,0,31.134,80.243,46.557,72.259c23.53-12.184,29.57-66.215,29.57-66.215
				l27.834-1.632c0,0,17.563,115.75-36.518,143.532c-43.659,22.429-89.164-59.159-89.164-59.159l-7.876-74.229L609.932,804.435z"/>
		</g>
		<g>
			<path style="fill:#2F1A31;" d="M522.227,1426.959c0,0,0.384,15.294,10.732,19.607c10.348,4.314,40.333,8.206,29.129,18.039
				c-6.429,5.643-36.727,1.998-45.281,1.998c-8.555,0-16.585,3.728-22.942-1.998c-6.994-6.299,0-37.646,0-37.646
				s7.381,3.845,14.02,3.673C517.451,1430.383,522.227,1426.959,522.227,1426.959z"/>
		</g>
		<g>
			<path style="fill:#6F4975;" d="M611.51,965.416c0,0,2.065,69.02-19.962,201.424c-15.901,95.586-34.673,191.906-43.884,238.083
				c-3.295,16.519-17.187,28.597-33.65,29.257l-8.848,0.355c-17.803,0.713-32.25-14.578-30.951-32.758l22.343-312.408l5.507-102.824
				L611.51,965.416z"/>
		</g>
		<g>
			<path style="fill:#2F1A31;" d="M424.216,1426.959c0,0,0.384,15.294,10.732,19.607c10.348,4.314,40.332,8.206,29.129,18.039
				c-6.429,5.643-36.728,1.998-45.281,1.998c-8.555,0-16.586,3.728-22.942-1.998c-6.993-6.299,0-37.646,0-37.646
				s7.382,3.845,14.02,3.673C419.44,1430.383,424.216,1426.959,424.216,1426.959z"/>
		</g>
		<g>
			<path style="fill:#6F4975;" d="M513.498,965.416c0,0,2.065,69.02-19.961,201.424c-15.901,95.586-34.674,191.906-43.884,238.083
				c-3.294,16.519-17.186,28.597-33.65,29.257l-8.849,0.355c-17.801,0.713-32.25-14.578-30.95-32.758l22.342-312.408l5.506-102.824
				L513.498,965.416z"/>
		</g>
		<g>
			<path style="fill:#2F1A31;" d="M393.232,1041.058c0.213,8.326,50.566,11.634,112.845,9.691
				c62.278-1.942,112.044-10.556,111.83-18.883c-0.213-8.327-50.325-13.216-112.602-11.272
				C443.026,1022.536,393.019,1032.729,393.232,1041.058z"/>
		</g>
		<g>
			<path style="fill:#96B4E0;" d="M408.477,805.308c0,0,11.013-43.647,92.266-44.09c117.174-0.64,106.324,107.026,117.165,270.648
				c0,0-115.417-16.321-224.733,7.142C393.174,1039.008,383.033,871.999,408.477,805.308z"/>
		</g>
		<g>
			<path style="fill:#96B4E0;" d="M378.485,799.048l53.068,29.362c0,0,116.198,10.553,147.045,5.47
				c30.846-5.082,39.309-27.732,39.309-27.732s-32.853-33.993-88.694-43.068c-5.247-0.86-10.688-1.491-16.33-1.858
				c-9.471-0.61-18.956-0.483-28.227,0.561C413.882,769.758,378.485,799.048,378.485,799.048z"/>
		</g>
		<g>
			<path style="fill:#F7B686;" d="M489.571,751.229l6.135-19.795l1.784-5.764l10.497-33.884l1.381,33.706l0.826,20.231l0.262,6.404
				c0.178,4.347,2.827,5.261,6.052,9.038c1.307,1.53,9.668,10.812,0.178,15.002c-11.819,5.224-33.917-2.685-42.319-13.043
				C474.432,763.108,487.589,757.625,489.571,751.229z"/>
		</g>
		<g>
			<path style="fill:#6F4975;" d="M608.102,1038.603c0,0-67.479-19.854-207.232,7.397l-1.077,20.104l204.867,7.241L608.102,1038.603
				z"/>
		</g>
		<g>
			<path style="fill:#2F1A31;" d="M377.38,800.271c-4.499,6.365,2.128,18.941,14.803,28.088
				c12.675,9.147,26.598,11.403,31.097,5.037c4.499-6.367-2.129-18.942-14.804-28.089C395.802,796.16,381.88,793.906,377.38,800.271
				z"/>
		</g>
		<g>
			<g>
				<path style="fill:#F7B686;" d="M296.923,1056.184L296.923,1056.184c-2.661,0.102-4.755,2.361-4.653,5.023l1.58,41.305
					c0.102,2.661,2.362,4.755,5.024,4.653l0,0c2.661-0.103,4.755-2.362,4.653-5.024l-1.581-41.305
					C301.845,1058.175,299.585,1056.081,296.923,1056.184z"/>
			</g>
			<g>
				<path style="fill:#F7B686;" d="M309.31,1055.709L309.31,1055.709c-2.661,0.102-4.755,2.363-4.653,5.024l1.767,46.193
					c0.102,2.661,2.362,4.755,5.023,4.653l0,0c2.661-0.102,4.755-2.362,4.654-5.023l-1.768-46.194
					C314.231,1057.701,311.971,1055.607,309.31,1055.709z"/>
			</g>
			<g>
				<path style="fill:#F7B686;" d="M311.72,1031.54l-1.307,1.124c-2.441,2.099-2.72,5.814-0.621,8.256l20.454,23.779
					c2.1,2.441,5.815,2.721,8.256,0.621l1.306-1.124c2.442-2.1,2.721-5.814,0.621-8.256l-20.455-23.779
					C317.876,1029.719,314.161,1029.44,311.72,1031.54z"/>
			</g>
			<g>
				<path style="fill:#F7B686;" d="M321.696,1055.235L321.696,1055.235c-2.661,0.102-4.755,2.362-4.653,5.023l1.417,37.029
					c0.102,2.661,2.362,4.755,5.023,4.652l0,0c2.661-0.102,4.755-2.361,4.653-5.022l-1.417-37.029
					C326.618,1057.228,324.357,1055.133,321.696,1055.235z"/>
			</g>
			<g>
				<path style="fill:#F7B686;" d="M287.619,1032.979c0,0-13.092,24.38-5.198,42.388c2.732,6.232,39.157,3.835,42.235-3.14
					c3.079-6.975-0.316-31.891-0.316-31.891L287.619,1032.979z"/>
			</g>
			<g>
				<path style="fill:#F7B686;" d="M284.621,1056.616L284.621,1056.616c-2.656,0.103-4.745,2.357-4.644,5.014l1.414,36.952
					c0.102,2.656,2.357,4.746,5.013,4.644l0,0c2.656-0.102,4.746-2.357,4.644-5.013l-1.414-36.952
					C289.532,1058.604,287.277,1056.515,284.621,1056.616z"/>
			</g>
		</g>
		<g>
			<g>
				<path style="fill:#F7B686;" d="M331.095,1044.832c12.554-52.525,34.682-127.016,68.809-183.6
					c7.908-13.111,11.118-18,16.811-24.96c4.582-5.599-0.072-20.044-9.568-27.986c-8.91-7.453-24.292-8.675-27.136-6.037
					c-4.837,4.485-10.622,13.584-19.672,28.053c-31.443,50.269-55.677,117.584-74.39,206.187L331.095,1044.832z"/>
			</g>
		</g>
		<g>
			<g>
				<path style="fill:#56335B;" d="M534.999,679.063c0,0,2.141,8.202,0,18.485c-2.142,10.283-12.599-14.994-12.599-14.994
					L534.999,679.063z"/>
			</g>
			<g>
				<path style="fill:#F7B686;" d="M536.243,700.514c-2.61-19.883-18.095-34.246-34.583-32.082
					c-16.489,2.166-27.74,20.039-25.131,39.922c2.611,19.882,18.095,34.246,34.583,32.081
					C527.602,738.269,538.852,720.396,536.243,700.514z"/>
			</g>
			<g>
				<path style="fill:#2F1A31;" d="M475.778,697.958l14.575-1.512c3.205-0.333,6.137-2.054,7.871-4.769
					c2.986-4.674,6.58-7.074,20.178-6.565c17.217,0.648,28.584-9.616,30.444-18.626c1.899-9.195-6.912-15.428-15.56-11.044
					c-8.648,4.385-4.936-6.366-13.252-7.508c-15.539-2.132-18.45,9.846-31.172,9.457c-16.683-0.512-46.564,12.165-32.393,41.531
					L475.778,697.958z"/>
			</g>
			<g>
				<g>
					<path style="fill:#060633;" d="M507.971,702.912c0.156-0.099,0.267-0.268,0.282-0.466c0.027-0.335-0.221-0.63-0.557-0.659
						c-0.197-0.016-4.745-0.83-7.036,4.006c-0.145,0.305-0.027,0.668,0.274,0.818c0.302,0.15,0.606-0.012,0.819-0.274
						c2.126-2.624,5.677-3.346,5.842-3.332C507.732,703.016,507.861,702.981,507.971,702.912z"/>
				</g>
			</g>
			<g>
				<path style="fill:#060633;" d="M505.324,710.743c0.383,1.405,1.521,2.318,2.54,2.04c1.02-0.277,1.535-1.643,1.152-3.048
					c-0.384-1.405-1.52-2.319-2.54-2.041C505.456,707.973,504.939,709.338,505.324,710.743z"/>
			</g>
			<g>
				<g>
					<path style="fill:#060633;" d="M530.553,701.101c0.142-0.024,0.266-0.133,0.33-0.305c0.108-0.291,0.002-0.661-0.237-0.825
						c-0.141-0.097-3.273-2.715-6.224,0.706c-0.186,0.216-0.194,0.593-0.012,0.853c0.182,0.261,0.449,0.241,0.675,0.092
						c2.249-1.491,5.051-0.674,5.167-0.594C530.351,701.095,530.455,701.117,530.553,701.101z"/>
				</g>
			</g>
			<g>
				<path style="fill:#060633;" d="M524.986,707.356c-0.181,1.444,0.523,2.723,1.571,2.854c1.05,0.132,2.046-0.933,2.227-2.379
					c0.182-1.445-0.523-2.723-1.571-2.854C526.164,704.846,525.167,705.91,524.986,707.356z"/>
			</g>
			<g>
				<path style="fill:#56335B;" d="M456.471,698.923c0,0,10.065,21.721,24.339,23.314c0,0-11.541-16.554,12.786-26.642
					C493.596,695.596,471.259,692.081,456.471,698.923z"/>
			</g>
			<g>
				<path style="fill:#F7B686;" d="M476.594,710.91c3.054,1.942,6.936,1.305,8.671-1.423c1.735-2.727,0.668-6.514-2.385-8.456
					c-3.053-1.942-6.935-1.306-8.67,1.422C472.474,705.182,473.541,708.968,476.594,710.91z"/>
			</g>
			<g>
				<path style="fill:#56335B;" d="M493.596,695.596c0,0-1.949,18.229,1.762,21.674c3.71,3.446,28.208,4.929,39.642,0.511l0,0
					c0.19,11.708-8.062,22.044-19.608,23.982c-3.82,0.642-7.771,0.646-11.696-0.04l0,0c-8.003-1.4-15.785-4.709-19.084-12.134
					c-1.005-2.259,1.917-16.157,1.917-16.157s1.097-8.157-3.647-12.4C482.88,701.031,488.358,696.107,493.596,695.596z"/>
			</g>
			<g>
				<path style="fill:#2F1A31;" d="M531.438,654.009c-4.516,0-4.923-3.897-4.926-3.938l0.817-0.076
					c0.013,0.136,0.368,3.301,4.334,3.188l0.025,0.821C531.603,654.008,531.519,654.009,531.438,654.009z"/>
			</g>
			<g>
				<path style="fill:#FFFFFF;" d="M523.28,680.286l-0.114-0.393c0.185-0.054,18.503-5.485,19.262-14.916
					c0.214-2.666-0.231-4.438-1.363-5.412c-1.815-1.564-5.121-0.791-8.038-0.111c-0.449,0.105-0.887,0.207-1.308,0.298l-0.087-0.401
					c0.419-0.091,0.856-0.192,1.302-0.296c3.012-0.702,6.426-1.5,8.398,0.2c1.239,1.066,1.731,2.948,1.506,5.756
					c-0.325,4.031-3.818,7.954-10.104,11.343C528.014,678.898,523.327,680.273,523.28,680.286z"/>
			</g>
			<g>
				<path style="fill:#FFFFFF;" d="M487.199,661.16c-1.724,0-3.554-0.117-5.493-0.379l0.056-0.407
					c9.353,1.266,16.089-0.909,20.091-2.958c4.329-2.214,6.469-4.75,6.49-4.774l0.315,0.263
					C508.582,652.997,501.594,661.16,487.199,661.16z"/>
			</g>
			<g>
				<path style="fill:#FFFFFF;" d="M521.158,730.545c0,2.352-1.216,4.26-2.718,4.26c-1.501,0-2.718-1.908-2.718-4.26
					c0-2.353,1.217-4.26,2.718-4.26C519.942,726.285,521.158,728.192,521.158,730.545z"/>
			</g>
		</g>
		<g>
			<path style="fill:#E08B65;" d="M336.768,923.212c-0.583,0-1.16-0.088-1.719-0.266c-2.009-0.638-3.519-2.341-4.252-4.794
				c-0.691-2.316-0.607-5.058,0.238-7.719c0.845-2.662,2.357-4.95,4.259-6.443c2.014-1.582,4.229-2.102,6.238-1.464
				c2.009,0.638,3.519,2.341,4.252,4.794c0.692,2.317,0.607,5.059-0.237,7.721c-0.845,2.661-2.357,4.948-4.259,6.441
				C339.835,922.623,338.277,923.212,336.768,923.212z M339.822,904.275c-1.064,0-2.198,0.442-3.286,1.297
				c-1.587,1.246-2.859,3.188-3.583,5.469c-0.724,2.282-0.805,4.602-0.228,6.535c0.537,1.797,1.578,3.022,2.933,3.452
				c1.354,0.428,2.913,0.03,4.388-1.127c1.587-1.247,2.859-3.19,3.583-5.47c0.725-2.281,0.805-4.602,0.228-6.535
				c-0.537-1.797-1.578-3.022-2.933-3.453C340.568,904.331,340.199,904.275,339.822,904.275z"/>
		</g>
		<g>
			<path style="fill:#2F1A31;" d="M597.005,829.915c-3.354-12.134-14.668-27.396-14.781-27.549l1.071-0.8
				c0.116,0.155,11.578,15.614,14.998,27.993L597.005,829.915z"/>
		</g>
		<g>
			<path style="fill:#2F1A31;" d="M489.822,1193.805l-1.32-0.212c0.091-0.565,9.164-56.845,15.403-76.976
				c6.298-20.32,33.208-37.272,33.479-37.441l0.707,1.136c-0.267,0.167-26.76,16.858-32.908,36.701
				C498.971,1137.054,489.912,1193.24,489.822,1193.805z"/>
		</g>
		<g>
			<g>
				<path style="fill:#E28569;" d="M722.738,676.177l150.355-122.228c9.719-7.9,24.354-2.724,26.944,9.53l41.167,194.731
					c2.369,11.206-6.959,21.429-18.336,20.094l-172.184-20.219c-6.253-0.734-11.566-4.916-13.751-10.822l-19.339-52.283
					C715.109,688.257,717.177,680.697,722.738,676.177z"/>
			</g>
			<g>
				<path style="fill:#E28569;" d="M647.128,696.115l80.17-16.948c10.26-2.169,20.147,5.008,21.264,15.435l3.736,34.898
					c0.906,8.472-4.351,16.389-12.512,18.84l-82.257,24.699c-9.178,2.755-18.882-2.292-21.896-11.389l-9.564-28.869
					C620.752,716.725,630.579,699.613,647.128,696.115z"/>
			</g>
			<g>
				<path style="fill:#6F4975;" d="M740.494,756.889l-25.265,2.273c-5.34,0.479-10.196-3.109-11.305-8.354l-12.08-57.143
					c-1.098-5.188,1.814-10.387,6.809-12.163l23.944-8.518c6.035-2.146,12.579,1.518,13.905,7.785l13.399,63.386
					C751.214,750.36,746.811,756.32,740.494,756.889z"/>
			</g>
			<g>
				<path style="fill:#E28569;" d="M700.864,841.688L700.864,841.688c-7.589,1.604-15.039-3.247-16.643-10.834l-14.662-69.352
					c-1.604-7.587,3.247-15.038,10.834-16.643l0,0c7.588-1.604,15.038,3.247,16.643,10.834l14.661,69.352
					C713.302,832.633,708.45,840.084,700.864,841.688z"/>
			</g>
			<g>
				<path style="fill:#E28569;" d="M722.738,676.177l150.355-122.228c0,0,24.354-2.724,26.944,9.53l41.167,194.731
					c2.369,11.206-6.959,21.429-18.336,20.094l-172.184-20.219c-6.253-0.734-11.566-4.916-13.751-10.822l-19.339-52.283
					C715.109,688.257,717.177,680.697,722.738,676.177z"/>
			</g>
		</g>
		<g>
			<g>
				<path style="fill:#EFAC7F;" d="M726.676,811.891c0,0,6.805,14.813-6.761,20.93c-17.284,7.792-46.288,0.928-35.404-4.16
					c9.649-4.511,24.89-7.634,24.89-7.634s-38.86,7.402-37.639-1.192c1.222-8.596,34.725-14.505,34.725-14.505
					s-38.515,3.638-34.73-4.108c3.783-7.746,34.17-13.302,34.17-13.302s-37.449,5.583-32.844-3.31
					c4.606-8.894,24.557-7.856,33.108-9.348c8.082-1.409,11.607,3.344,12.408,11.237c0,0,5.366,7.396,4.586,12.684
					c-0.298,2.028,1.856,3.615,2.271,4.998C726.25,806.826,726.676,811.891,726.676,811.891z"/>
			</g>
		</g>
	</g>
</g>
</svg>
